<svg width="34" height="36" viewBox="0 0 34 36" fill="none" xmlns="http://www.w3.org/2000/svg">
<path d="M27.6517 3.96595C26.2758 2.82741 24.6802 1.96582 22.8705 1.37852C21.06 0.790962 19.0859 0.5 16.9521 0.5C13.9059 0.5 11.1325 1.16715 8.64261 2.50943C6.14298 3.84616 4.16014 5.82321 2.69572 8.42521C1.22258 11.0319 0.5 14.2159 0.5 17.9531C0.5 21.668 1.2061 24.8446 2.6447 27.4603L2.64549 27.4617C4.08824 30.0648 6.05507 32.048 8.54418 33.396L8.54501 33.3964C11.0367 34.7398 13.843 35.4062 16.9521 35.4062C19.4242 35.4062 21.6161 35.028 23.5174 34.2577C25.3995 33.4953 26.9908 32.484 28.2813 31.2183L28.2814 31.2183C29.5681 29.9561 30.5679 28.5762 31.2737 27.0779L31.2743 27.0766C31.9743 25.5794 32.3856 24.0973 32.4985 22.6327L32.5397 22.0981L32.0035 22.0943L22.8973 22.0298L22.4644 22.0268L22.3994 22.4548C22.2997 23.1119 22.1068 23.6943 21.8256 24.2072L21.824 24.2101C21.5531 24.7123 21.2017 25.1395 20.7682 25.4953C20.3373 25.8489 19.8242 26.1265 19.2221 26.3239C18.623 26.5097 17.9328 26.6065 17.1458 26.6065C15.7733 26.6065 14.6297 26.288 13.6916 25.674C12.7572 25.0517 12.0247 24.1193 11.507 22.8438C10.9993 21.5557 10.7354 19.9311 10.7354 17.9531C10.7354 16.0853 10.9932 14.5119 11.4923 13.2199C12.0004 11.9325 12.7305 10.9702 13.6715 10.3046C14.6169 9.64335 15.7873 9.29973 17.2104 9.29973C18.0241 9.29973 18.7343 9.41649 19.3481 9.64016L19.3481 9.64021L19.3547 9.64252C19.9722 9.85774 20.4848 10.1663 20.902 10.5637L20.9019 10.5638L20.9105 10.5717C21.3419 10.964 21.6778 11.4325 21.9193 11.9822L21.9193 11.9822L21.9223 11.9889C22.1757 12.5432 22.3353 13.1686 22.3956 13.8704L22.4348 14.3277H22.8937H32H32.5437L32.4982 13.7858C32.3215 11.6794 31.8172 9.79404 30.9766 8.13826C30.1394 6.48941 29.0311 5.09668 27.6517 3.96595ZM27.6517 3.96595C27.652 3.96622 27.6523 3.9665 27.6527 3.96677L27.3339 4.35183L27.6508 3.96523C27.6511 3.96547 27.6514 3.96571 27.6517 3.96595Z" fill="#1D5AB9" stroke="white"/>
</svg>
