<svg width="362" height="216" viewBox="0 0 362 216" fill="none" xmlns="http://www.w3.org/2000/svg">
<path d="M184.779 213.905C185.512 210.014 187.788 206.447 190.984 204.169" stroke="#3D72CD" stroke-width="0.779" stroke-miterlimit="10"/>
<path d="M184.68 215C184.817 211.751 186.057 203.929 188.989 199.033" stroke="#3D72CD" stroke-width="0.779" stroke-miterlimit="10"/>
<path d="M184.724 214.598C185.231 208.803 185.187 202.399 184.294 196.648" stroke="#3D72CD" stroke-width="0.779" stroke-miterlimit="10"/>
<path d="M191.624 202.749L191.624 202.749C191.595 202.802 191.566 202.854 191.537 202.906C191.24 203.436 190.941 203.971 190.601 204.493C190.608 204.49 190.616 204.487 190.624 204.483C190.781 204.419 190.946 204.35 191.101 204.292C191.33 204.206 191.579 204.123 191.819 204.087L191.82 204.087C192.856 203.933 193.908 203.976 194.912 204.109L194.913 204.109C195.694 204.212 196.475 204.369 197.237 204.522C197.482 204.571 197.726 204.62 197.967 204.667C198.967 204.86 199.94 205.018 200.916 205.031L200.916 205.031C201.464 205.039 202.036 204.966 202.511 204.781C202.982 204.597 203.322 204.319 203.493 203.929L203.493 203.928C203.775 203.29 203.49 202.404 202.857 201.872L202.856 201.87C202.23 201.34 201.358 201.118 200.419 201.026L200.419 201.026C200.078 200.993 199.738 200.975 199.385 200.957C199.253 200.95 199.12 200.944 198.983 200.936C198.492 200.908 197.98 200.867 197.469 200.768L197.468 200.768C197.164 200.709 196.864 200.63 196.579 200.552C196.534 200.54 196.489 200.528 196.444 200.516C196.204 200.45 195.975 200.388 195.746 200.335C195.204 200.209 194.72 200.152 194.255 200.243L191.624 202.749ZM191.624 202.749L191.625 202.748M191.624 202.749L191.625 202.748M191.625 202.748C192.303 201.525 193.138 200.463 194.255 200.243L191.625 202.748Z" fill="#3D72CD" stroke="#3D72CD"/>
<path d="M189.575 198.453C189.371 198.687 189.173 198.909 188.976 199.112C189.11 198.68 189.305 198.169 189.524 197.639C189.928 196.661 190.393 195.673 190.679 195.065C190.772 194.868 190.847 194.71 190.894 194.606C191.83 192.55 193.251 190.676 195.22 190.118L195.22 190.118C196.057 189.881 196.936 189.888 197.878 189.973C198.191 190.001 198.519 190.04 198.855 190.079C199.494 190.153 200.161 190.23 200.801 190.249L200.803 190.249C201.11 190.256 201.427 190.251 201.732 190.246C201.878 190.244 202.022 190.241 202.159 190.24C202.598 190.238 203.014 190.249 203.419 190.31C204.226 190.433 204.955 190.794 205.305 191.391L205.305 191.393C205.573 191.847 205.594 192.414 205.4 192.98C205.206 193.547 204.808 194.064 204.315 194.38C203.281 195.043 201.935 195.1 200.568 194.947C200.168 194.902 199.793 194.846 199.409 194.788C199.113 194.744 198.812 194.699 198.489 194.657C197.781 194.566 197.046 194.506 196.296 194.565C194.384 194.715 192.621 195.628 191.177 196.796C190.642 197.227 190.163 197.778 189.72 198.287C189.671 198.343 189.623 198.398 189.575 198.453Z" fill="#3D72CD" stroke="#3D72CD"/>
<path d="M185.475 191.106L185.475 191.106C185.646 192.163 185.474 193.257 185.139 194.327C185.114 194.409 185.084 194.51 185.049 194.624C184.948 194.966 184.809 195.43 184.637 195.873C184.523 196.167 184.404 196.422 184.288 196.603C184.23 196.693 184.183 196.75 184.149 196.781C184.146 196.783 184.144 196.785 184.142 196.787C184.109 196.783 184.031 196.766 183.895 196.698C183.719 196.609 183.515 196.469 183.301 196.298C182.876 195.958 182.474 195.548 182.277 195.34C181.687 194.71 181.218 193.97 180.929 193.164L180.928 193.162C180.588 192.224 180.469 191.218 180.348 190.143C180.345 190.117 180.342 190.091 180.339 190.065C180.223 189.033 180.1 187.937 179.741 186.894L179.741 186.894C179.331 185.71 178.631 184.648 177.976 183.653C177.806 183.396 177.639 183.142 177.481 182.893C176.689 181.643 176.044 180.342 176.054 178.993C176.059 178.34 176.268 177.663 176.631 177.128C176.993 176.594 177.487 176.229 178.056 176.126L178.057 176.126C178.816 175.989 179.649 176.309 180.363 176.857L180.364 176.858C181.369 177.626 182.106 178.75 182.42 179.994C182.61 180.749 182.648 181.539 182.685 182.387L182.687 182.429C182.723 183.247 182.762 184.122 182.97 184.975C183.229 186.047 183.743 187.028 184.222 187.945C184.259 188.016 184.296 188.088 184.333 188.158C184.854 189.159 185.313 190.093 185.475 191.106ZM184.125 196.8C184.125 196.8 184.125 196.8 184.125 196.8L184.125 196.8Z" fill="#3D72CD" stroke="#3D72CD"/>
<path d="M184.669 214.052C184.294 208.932 182.993 203.148 180.166 198.888" stroke="#3D72CD" stroke-width="0.779" stroke-miterlimit="10"/>
<path d="M179.298 195.1L179.298 195.102C179.697 196.228 179.945 197.413 180.153 198.615L180.153 198.617C180.166 198.686 180.187 198.777 180.206 198.859C180.213 198.888 180.219 198.917 180.225 198.943C180.251 199.057 180.273 199.167 180.285 199.269C180.291 199.319 180.293 199.362 180.293 199.396C180.251 199.382 180.2 199.36 180.141 199.329C179.933 199.221 179.723 199.055 179.616 198.959C179.426 198.782 179.254 198.576 179.076 198.342C179.016 198.263 178.951 198.176 178.884 198.086C178.766 197.926 178.641 197.757 178.518 197.603L178.517 197.603C176.835 195.51 174.189 194.516 171.663 194.15C170.399 193.966 169.13 193.919 167.88 193.898C167.548 193.893 167.217 193.889 166.889 193.886C165.972 193.876 165.069 193.867 164.164 193.816L164.164 193.816L164.16 193.816C163.592 193.787 163.138 193.724 162.814 193.491C162.401 193.192 162.203 192.55 162.342 191.936C162.48 191.332 162.896 190.782 163.433 190.316L163.433 190.315C164.615 189.287 166.194 188.762 167.8 188.656C169.407 188.55 171.038 188.841 172.644 189.281L172.644 189.281C174.194 189.705 175.678 190.268 176.838 191.256C177.985 192.236 178.776 193.612 179.298 195.1ZM180.624 199.848C180.901 199.641 180.773 199.091 180.689 198.729C180.671 198.653 180.655 198.585 180.646 198.53L180.624 199.848Z" fill="#3D72CD" stroke="#3D72CD"/>
<path d="M184.564 214.598C184.343 210.132 182.36 205.777 179.152 202.706" stroke="#3D72CD" stroke-width="0.779" stroke-miterlimit="10"/>
<path d="M173.814 199.213C172.592 198.866 171.447 198.563 170.36 198.776L173.814 199.213ZM173.814 199.213C175.052 199.564 176.289 199.948 177.377 200.534C177.462 200.58 177.533 200.618 177.603 200.661L177.603 200.661L177.615 200.668C178.048 200.916 178.346 201.352 178.705 201.907C178.737 201.956 178.794 202.07 178.88 202.257C178.905 202.312 178.931 202.371 178.96 202.433C178.985 202.49 179.012 202.548 179.039 202.608C177.634 202.291 176.139 202.306 174.842 202.318L174.805 202.319C174.805 202.319 174.805 202.319 174.805 202.319M173.814 199.213L174.805 202.319M174.805 202.319C172.817 202.336 170.828 202.71 168.969 203.436L168.969 203.436L168.967 203.437C168.714 203.536 168.48 203.635 168.251 203.732C167.928 203.867 167.617 203.999 167.282 204.122C166.733 204.323 166.205 204.467 165.669 204.497C165.39 204.51 165.101 204.469 164.876 204.372C164.656 204.278 164.538 204.152 164.492 204.006C164.416 203.75 164.544 203.404 164.852 202.988L164.852 202.988M174.805 202.319L164.852 202.988M164.852 202.988L164.853 202.986M164.852 202.988L164.853 202.986M164.853 202.986C165.453 202.168 166.229 201.495 167.052 200.785M164.853 202.986L167.052 200.785M167.052 200.785C168.129 199.859 169.15 199.014 170.36 198.776L167.052 200.785ZM179.671 202.776C179.583 202.598 179.497 202.408 179.418 202.232C179.301 201.975 179.198 201.748 179.125 201.635C178.778 201.099 178.419 200.552 177.863 200.234C177.78 200.183 177.698 200.139 177.615 200.094L177.615 200.094C176.474 199.48 175.19 199.084 173.95 198.732L179.671 202.776Z" fill="#3D72CD" stroke="#3D72CD"/>
<path d="M318.981 196.592L318.981 196.593C318.304 197.272 317.473 197.658 316.679 197.974C316.479 198.053 316.284 198.128 316.092 198.201C315.496 198.427 314.939 198.639 314.418 198.94C312.957 199.785 311.887 201.32 311.24 202.991C311.233 203.01 311.225 203.029 311.218 203.048C310.971 203.689 310.621 204.596 310.428 205.483C310.329 205.939 310.276 206.367 310.293 206.736C310.31 207.106 310.395 207.375 310.532 207.556L310.534 207.558C310.848 207.976 311.419 208.096 312.237 207.959C313.034 207.826 313.878 207.476 314.507 207.208L314.508 207.208C314.731 207.113 314.959 207.013 315.192 206.91C316.404 206.375 317.734 205.789 319.117 205.728C320.619 205.662 322.016 206.21 323.256 206.714L323.271 206.72C324.536 207.233 325.724 207.716 326.977 207.721C328.22 207.726 329.521 207.126 330.067 206.052C330.3 205.589 330.395 205.071 330.504 204.475C330.524 204.366 330.545 204.254 330.567 204.139C330.7 203.44 330.889 202.646 331.457 202.009L331.457 202.009C332.043 201.354 332.809 201.096 333.555 200.991C334.088 200.915 334.665 200.913 335.184 200.91C335.37 200.909 335.548 200.908 335.714 200.904L335.715 200.904C337.134 200.872 338.575 200.485 339.651 199.571L339.652 199.571C340.737 198.655 341.351 197.151 341.019 195.93L341.019 195.93C340.742 194.914 339.899 194.176 338.942 193.395L338.942 193.394C337.622 192.313 336.311 191.35 334.824 191.452C334.288 191.49 333.755 191.666 333.148 191.867L333.116 191.877C332.521 192.074 331.85 192.293 331.148 192.318M318.981 196.592L331.13 191.818M318.981 196.592C319.928 195.639 320.351 194.315 320.721 193.161C320.773 192.998 320.824 192.839 320.875 192.685C321.311 191.372 321.909 190.164 322.929 189.666M318.981 196.592L322.71 189.216M331.148 192.318L331.13 191.818M331.148 192.318C331.148 192.318 331.148 192.318 331.148 192.318L331.13 191.818M331.148 192.318C330.256 192.35 329.458 192.073 328.74 191.703C328.197 191.422 327.669 191.07 327.177 190.741C327.03 190.643 326.886 190.547 326.746 190.456C325.486 189.635 324.096 189.097 322.929 189.666M331.13 191.818C329.765 191.867 328.597 191.088 327.471 190.336C327.32 190.235 327.169 190.135 327.019 190.037C325.752 189.211 324.143 188.519 322.71 189.216M322.929 189.666C322.929 189.666 322.929 189.666 322.929 189.666L322.71 189.216M322.929 189.666C322.929 189.666 322.929 189.666 322.929 189.666L322.71 189.216" fill="#3D72CD" stroke="#3D72CD"/>
<path d="M310.399 207.706C317.733 201.325 326.292 197.099 335.528 195.301" stroke="white" stroke-width="0.7047" stroke-miterlimit="10" stroke-linecap="round" stroke-linejoin="round"/>
<path d="M317.651 197.892C317.822 195.788 317.431 193.593 318.114 191.6C319.332 188.05 323.553 186.196 324.611 182.595C325.878 178.291 322.01 173.897 322.682 169.458C322.963 167.588 324.027 165.941 324.688 164.171C325.349 162.401 325.52 160.185 324.236 158.806C322.892 157.365 320.45 157.533 318.852 158.683C317.254 159.833 316.334 161.698 315.584 163.535C314.84 165.371 314.185 167.292 312.923 168.816C310.625 171.591 306.492 172.808 305.235 176.197C303.957 179.647 306.376 183.298 306.806 186.955C307.131 189.724 306.299 192.482 305.555 195.173C304.816 197.864 304.161 200.712 304.839 203.414C305.742 207.015 308.944 209.31 312.013 206.998C315.05 204.726 317.337 201.851 317.651 197.892Z" fill="#3D72CD"/>
<path d="M310.068 207.881C308.85 195.029 311.639 181.088 318.152 169.989" stroke="white" stroke-width="1.1364" stroke-miterlimit="10" stroke-linecap="round" stroke-linejoin="round"/>
<path d="M301.956 203.035C300.617 201.12 299.851 198.725 298.033 197.267C295.95 195.593 293.062 195.576 290.417 195.358C287.766 195.14 284.779 194.381 283.551 191.991C282.878 190.679 282.878 189.122 282.41 187.726C281.892 186.191 280.834 184.918 280.09 183.483C279.351 182.048 278.96 180.223 279.82 178.855C280.691 177.47 282.597 177.063 284.157 177.509C285.716 177.956 286.995 179.067 288.163 180.206C289.331 181.345 290.472 182.562 291.91 183.31C294.296 184.544 297.129 184.315 299.807 184.198C302.485 184.086 305.406 184.198 307.478 185.928C309.181 187.352 309.958 189.591 310.652 191.718C311.655 194.761 312.68 197.792 313.656 200.846C314.256 202.722 315.403 205.597 313.474 207.071C310.074 209.667 303.918 205.832 301.956 203.035Z" fill="#3D72CD"/>
<path d="M312.399 207.182C308.145 197.177 299.141 188.657 288.362 184.9" stroke="white" stroke-width="0.8174" stroke-miterlimit="10" stroke-linecap="round" stroke-linejoin="round"/>
<path d="M67.2986 206.722C68.5165 204.885 69.2219 202.529 70.8585 201.184C72.7377 199.648 75.3222 199.849 77.7029 199.822C80.078 199.799 82.7617 199.258 83.8859 196.935C84.5031 195.662 84.5086 194.088 84.944 192.709C85.4179 191.196 86.3768 189.99 87.0546 188.594C87.7269 187.198 88.0906 185.384 87.3356 183.938C86.5641 182.475 84.8613 181.923 83.4616 182.257C82.0619 182.592 80.9046 183.62 79.8521 184.681C78.7995 185.741 77.769 186.886 76.4685 187.533C74.3193 188.605 71.7844 188.159 69.3817 187.84C66.979 187.528 64.3614 187.427 62.4933 189.018C60.9558 190.33 60.2449 192.536 59.6001 194.629C58.6798 197.627 57.7375 200.614 56.8393 203.624C56.2882 205.477 55.2356 208.291 56.955 209.927C59.9694 212.819 65.5187 209.402 67.2986 206.722Z" fill="#3D72CD"/>
<path d="M57.9082 210.139C61.7988 200.347 69.9326 192.413 79.6205 189.415" stroke="white" stroke-width="0.7781" stroke-miterlimit="10" stroke-linecap="round" stroke-linejoin="round"/>
<path d="M52.5738 201.581C52.4416 199.643 52.7502 197.628 52.2046 195.791C51.2292 192.525 47.8456 190.822 46.997 187.511C45.983 183.553 49.08 179.511 48.5455 175.424C48.3195 173.705 47.4654 172.192 46.9364 170.561C46.4073 168.931 46.2696 166.893 47.3001 165.626C48.3802 164.297 50.331 164.454 51.615 165.514C52.8934 166.575 53.6319 168.289 54.2326 169.975C54.8277 171.661 55.3567 173.431 56.3652 174.832C58.2058 177.384 61.5177 178.5 62.5207 181.621C63.5457 184.798 61.6059 188.153 61.2642 191.52C61.0052 194.071 61.672 196.606 62.2672 199.079C62.8623 201.553 63.3859 204.171 62.8403 206.661C62.1184 209.972 59.5504 212.082 57.0926 209.961C54.6624 207.867 52.8273 205.221 52.5738 201.581Z" fill="#3D72CD"/>
<path d="M58.6467 210.764C59.6221 198.945 57.3848 186.121 52.1716 175.91" stroke="white" stroke-width="0.9754" stroke-miterlimit="10" stroke-linecap="round" stroke-linejoin="round"/>
<path d="M54.0009 198.328L54.0003 198.327C53.357 197.875 52.6703 197.542 51.946 197.189C51.7127 197.076 51.4754 196.961 51.2345 196.839C50.2689 196.351 49.2843 195.775 48.4799 194.832M54.0009 198.328L48.8597 194.507M54.0009 198.328C55.8288 199.608 57.1801 201.812 58.0098 204.159L54.0009 198.328ZM48.4799 194.832C48.4797 194.832 48.4795 194.832 48.4793 194.832L48.8597 194.507M48.4799 194.832C48.48 194.832 48.48 194.832 48.4801 194.832L48.8597 194.507M48.4799 194.832C47.3544 193.519 46.832 191.765 46.3581 190.174C46.2901 189.946 46.2231 189.721 46.1554 189.501L46.155 189.5C45.884 188.61 45.5532 187.71 45.118 186.931C44.6823 186.151 44.1583 185.52 43.5153 185.132M48.8597 194.507C47.8089 193.281 47.3188 191.641 46.8401 190.039C46.7715 189.809 46.7031 189.581 46.6333 189.354C46.0823 187.545 45.2612 185.602 43.7733 184.703M43.5153 185.132C43.5154 185.132 43.5156 185.132 43.5157 185.132L43.7733 184.703M43.5153 185.132C43.5151 185.131 43.5149 185.131 43.5147 185.131L43.7733 184.703M43.5153 185.132C42.0451 184.249 40.3658 184.884 38.8734 185.893L38.8723 185.894C38.7044 186.007 38.5321 186.126 38.3562 186.248C37.7716 186.652 37.146 187.084 36.5006 187.419C35.6459 187.862 34.695 188.171 33.6311 188.059L38.5932 185.479C40.1031 184.458 42.0264 183.654 43.7733 184.703M29.1824 186.605L29.1816 186.605C28.286 186.477 27.4445 186.709 26.6214 187.153C25.7906 187.6 25.0092 188.246 24.2395 188.912L24.239 188.912C23.1201 189.876 22.0879 190.829 21.7601 192.241C21.3625 193.968 22.1932 196.138 23.5652 197.502L23.5659 197.503C24.9252 198.859 26.7014 199.499 28.4155 199.653L28.4165 199.653C28.6162 199.672 28.8289 199.687 29.0495 199.702C29.6786 199.747 30.3725 199.795 31.0165 199.94C31.9165 200.142 32.8056 200.542 33.4833 201.42C34.1399 202.266 34.3769 203.294 34.5542 204.246C34.5824 204.397 34.6091 204.546 34.6355 204.694C34.7812 205.508 34.9151 206.256 35.2234 206.933C35.9565 208.533 37.6115 209.449 39.1155 209.545C40.635 209.643 42.0536 209.08 43.5605 208.483L43.5835 208.474C45.067 207.886 46.7369 207.259 48.5363 207.465L48.5363 207.465C49.5413 207.58 50.504 207.943 51.4197 208.381C52.0412 208.679 52.6664 209.025 53.2734 209.361C53.5516 209.515 53.8259 209.666 54.0943 209.81L54.0947 209.811C54.859 210.222 55.8976 210.766 56.8732 211.01C57.8711 211.26 58.5695 211.147 58.9547 210.579L58.9558 210.577C59.1361 210.314 59.2394 209.917 59.2517 209.386C59.2638 208.861 59.1861 208.255 59.0535 207.62C58.7971 206.393 58.3526 205.132 58.0425 204.251C58.0315 204.22 58.0206 204.189 58.01 204.159L29.1824 186.605ZM29.1824 186.605C29.8426 186.699 30.5019 186.983 31.2397 187.302M29.1824 186.605L31.2397 187.302M31.2397 187.302L31.2716 187.316M31.2397 187.302L31.2716 187.316M31.2716 187.316C31.9933 187.628 32.7957 187.972 33.6309 188.059L31.2716 187.316Z" fill="#3D72CD" stroke="#3D72CD"/>
<path d="M59.0435 210.631C50.0555 201.441 39.6347 195.066 28.459 191.917" stroke="white" stroke-width="0.8986" stroke-miterlimit="10" stroke-linecap="round" stroke-linejoin="round"/>
<path d="M316.582 44.1651C316.582 45.9349 315.166 47.3697 313.419 47.3697C311.672 47.3697 310.256 45.9349 310.256 44.1651C310.256 42.3953 311.672 40.9604 313.419 40.9604C315.16 40.9604 316.582 42.3953 316.582 44.1651Z" stroke="#3D72CD" stroke-width="2" stroke-miterlimit="10" stroke-linecap="round" stroke-linejoin="round"/>
<path d="M315.706 46.375L317.937 48.6413" stroke="#3D72CD" stroke-width="2" stroke-miterlimit="10" stroke-linecap="round" stroke-linejoin="round"/>
<path d="M192.826 1L196.154 4.37155" stroke="#3D72CD" stroke-width="2" stroke-miterlimit="10" stroke-linecap="round" stroke-linejoin="round"/>
<path d="M196.154 1L192.826 4.37155" stroke="#3D72CD" stroke-width="2" stroke-miterlimit="10" stroke-linecap="round" stroke-linejoin="round"/>
<path d="M240.524 195.103L243.852 198.475" stroke="#3D72CD" stroke-width="2" stroke-miterlimit="10" stroke-linecap="round" stroke-linejoin="round"/>
<path d="M243.852 195.103L240.524 198.475" stroke="#3D72CD" stroke-width="2" stroke-miterlimit="10" stroke-linecap="round" stroke-linejoin="round"/>
<path d="M29.3318 150.425V155.193" stroke="#3D72CD" stroke-width="2" stroke-miterlimit="10" stroke-linecap="round" stroke-linejoin="round"/>
<path d="M31.6909 152.809H26.9792" stroke="#3D72CD" stroke-width="2" stroke-miterlimit="10" stroke-linecap="round" stroke-linejoin="round"/>
<path d="M19.0968 113.817C19.0968 115.414 17.8184 116.715 16.2368 116.715C14.6607 116.715 13.3767 115.419 13.3767 113.817C13.3767 112.22 14.6552 110.919 16.2368 110.919C17.8184 110.925 19.0968 112.22 19.0968 113.817Z" stroke="#3D72CD" stroke-width="2" stroke-miterlimit="10" stroke-linecap="round" stroke-linejoin="round"/>
<path d="M137.806 183.898C137.806 185.495 136.528 186.796 134.946 186.796C133.37 186.796 132.086 185.501 132.086 183.898C132.086 182.302 133.364 181.001 134.946 181.001C136.528 181.006 137.806 182.302 137.806 183.898Z" stroke="#3D72CD" stroke-width="2" stroke-miterlimit="10" stroke-linecap="round" stroke-linejoin="round"/>
<path d="M326.549 131.714C326.549 133.311 325.271 134.612 323.689 134.612C322.113 134.612 320.829 133.317 320.829 131.714C320.829 130.118 322.107 128.817 323.689 128.817C325.271 128.822 326.549 130.118 326.549 131.714Z" stroke="#3D72CD" stroke-width="2" stroke-miterlimit="10" stroke-linecap="round" stroke-linejoin="round"/>
<path d="M1.57168 63.0377C1.57168 63.3473 1.32566 63.5871 1.03584 63.5871C0.746021 63.5871 0.5 63.3473 0.5 63.0377C0.5 62.7281 0.746026 62.4883 1.03584 62.4883C1.32565 62.4883 1.57168 62.7281 1.57168 63.0377Z" fill="#BED2FF" stroke="#BED2FF"/>
<path d="M8.80727 63.0372C8.80727 63.3468 8.56125 63.5866 8.27143 63.5866C7.98162 63.5866 7.7356 63.3468 7.7356 63.0372C7.7356 62.7276 7.98162 62.4878 8.27143 62.4878C8.56125 62.4878 8.80727 62.7276 8.80727 63.0372Z" fill="#BED2FF" stroke="#BED2FF"/>
<path d="M16.0375 63.0372C16.0375 63.3468 15.7915 63.5866 15.5017 63.5866C15.2118 63.5866 14.9658 63.3468 14.9658 63.0372C14.9658 62.7276 15.2118 62.4878 15.5017 62.4878C15.7915 62.4878 16.0375 62.7276 16.0375 63.0372Z" fill="#BED2FF" stroke="#BED2FF"/>
<path d="M23.2731 63.0372C23.2731 63.3468 23.0271 63.5866 22.7373 63.5866C22.4474 63.5866 22.2014 63.3468 22.2014 63.0372C22.2014 62.7276 22.4474 62.4878 22.7373 62.4878C23.0271 62.4878 23.2731 62.7276 23.2731 63.0372Z" fill="#BED2FF" stroke="#BED2FF"/>
<path d="M30.5031 63.0372C30.5031 63.3468 30.257 63.5866 29.9672 63.5866C29.6774 63.5866 29.4314 63.3468 29.4314 63.0372C29.4314 62.7276 29.6774 62.4878 29.9672 62.4878C30.257 62.4878 30.5031 62.7276 30.5031 63.0372Z" fill="#BED2FF" stroke="#BED2FF"/>
<path d="M37.7387 63.0372C37.7387 63.3468 37.4926 63.5866 37.2028 63.5866C36.913 63.5866 36.667 63.3468 36.667 63.0372C36.667 62.7276 36.913 62.4878 37.2028 62.4878C37.4926 62.4878 37.7387 62.7276 37.7387 63.0372Z" fill="#BED2FF" stroke="#BED2FF"/>
<path d="M1.57168 70.3619C1.57168 70.6715 1.32565 70.9113 1.03584 70.9113C0.746025 70.9113 0.5 70.6715 0.5 70.3619C0.5 70.0523 0.746025 69.8125 1.03584 69.8125C1.32565 69.8125 1.57168 70.0523 1.57168 70.3619Z" fill="#BED2FF" stroke="#BED2FF"/>
<path d="M8.80727 70.3619C8.80727 70.6715 8.56125 70.9113 8.27143 70.9113C7.98162 70.9113 7.7356 70.6715 7.7356 70.3619C7.7356 70.0523 7.98162 69.8125 8.27143 69.8125C8.56125 69.8125 8.80727 70.0523 8.80727 70.3619Z" fill="#BED2FF" stroke="#BED2FF"/>
<path d="M16.0375 70.3619C16.0375 70.6715 15.7915 70.9113 15.5017 70.9113C15.2118 70.9113 14.9658 70.6715 14.9658 70.3619C14.9658 70.0523 15.2118 69.8125 15.5017 69.8125C15.7915 69.8125 16.0375 70.0523 16.0375 70.3619Z" fill="#BED2FF" stroke="#BED2FF"/>
<path d="M23.2731 70.3619C23.2731 70.6715 23.0271 70.9113 22.7373 70.9113C22.4474 70.9113 22.2014 70.6715 22.2014 70.3619C22.2014 70.0523 22.4474 69.8125 22.7373 69.8125C23.0271 69.8125 23.2731 70.0523 23.2731 70.3619Z" fill="#BED2FF" stroke="#BED2FF"/>
<path d="M30.5031 70.3619C30.5031 70.6715 30.257 70.9113 29.9672 70.9113C29.6774 70.9113 29.4314 70.6715 29.4314 70.3619C29.4314 70.0523 29.6774 69.8125 29.9672 69.8125C30.257 69.8125 30.5031 70.0523 30.5031 70.3619Z" fill="#BED2FF" stroke="#BED2FF"/>
<path d="M37.7387 70.3619C37.7387 70.6715 37.4926 70.9113 37.2028 70.9113C36.913 70.9113 36.667 70.6715 36.667 70.3619C36.667 70.0523 36.913 69.8125 37.2028 69.8125C37.4926 69.8125 37.7387 70.0523 37.7387 70.3619Z" fill="#BED2FF" stroke="#BED2FF"/>
<path d="M1.57168 77.6925C1.57168 78.0021 1.32566 78.2419 1.03584 78.2419C0.746021 78.2419 0.5 78.0021 0.5 77.6925C0.5 77.3829 0.746026 77.1431 1.03584 77.1431C1.32565 77.1431 1.57168 77.3829 1.57168 77.6925Z" fill="#BED2FF" stroke="#BED2FF"/>
<path d="M8.80727 77.6925C8.80727 78.0021 8.56125 78.2419 8.27143 78.2419C7.98162 78.2419 7.7356 78.0021 7.7356 77.6925C7.7356 77.3829 7.98162 77.1431 8.27143 77.1431C8.56125 77.1431 8.80727 77.3829 8.80727 77.6925Z" fill="#BED2FF" stroke="#BED2FF"/>
<path d="M16.0375 77.6925C16.0375 78.0021 15.7915 78.2419 15.5017 78.2419C15.2118 78.2419 14.9658 78.0021 14.9658 77.6925C14.9658 77.3829 15.2118 77.1431 15.5017 77.1431C15.7915 77.1431 16.0375 77.3829 16.0375 77.6925Z" fill="#BED2FF" stroke="#BED2FF"/>
<path d="M23.2731 77.6925C23.2731 78.0021 23.0271 78.2419 22.7373 78.2419C22.4474 78.2419 22.2014 78.0021 22.2014 77.6925C22.2014 77.3829 22.4474 77.1431 22.7373 77.1431C23.0271 77.1431 23.2731 77.3829 23.2731 77.6925Z" fill="#BED2FF" stroke="#BED2FF"/>
<path d="M30.5031 77.6925C30.5031 78.0021 30.257 78.2419 29.9672 78.2419C29.6774 78.2419 29.4314 78.0021 29.4314 77.6925C29.4314 77.3829 29.6774 77.1431 29.9672 77.1431C30.257 77.1431 30.5031 77.3829 30.5031 77.6925Z" fill="#BED2FF" stroke="#BED2FF"/>
<path d="M37.7387 77.6925C37.7387 78.0021 37.4926 78.2419 37.2028 78.2419C36.913 78.2419 36.667 78.0021 36.667 77.6925C36.667 77.3829 36.913 77.1431 37.2028 77.1431C37.4926 77.1431 37.7387 77.3829 37.7387 77.6925Z" fill="#BED2FF" stroke="#BED2FF"/>
<path d="M1.57168 85.0172C1.57168 85.3268 1.32565 85.5666 1.03584 85.5666C0.746026 85.5666 0.5 85.3268 0.5 85.0172C0.5 84.7076 0.746026 84.4678 1.03584 84.4678C1.32565 84.4678 1.57168 84.7076 1.57168 85.0172Z" fill="#BED2FF" stroke="#BED2FF"/>
<path d="M8.80727 85.0172C8.80727 85.3268 8.56125 85.5666 8.27143 85.5666C7.98162 85.5666 7.7356 85.3268 7.7356 85.0172C7.7356 84.7076 7.98162 84.4678 8.27143 84.4678C8.56125 84.4678 8.80727 84.7076 8.80727 85.0172Z" fill="#BED2FF" stroke="#BED2FF"/>
<path d="M16.0375 85.0172C16.0375 85.3268 15.7915 85.5666 15.5017 85.5666C15.2118 85.5666 14.9658 85.3268 14.9658 85.0172C14.9658 84.7076 15.2118 84.4678 15.5017 84.4678C15.7915 84.4678 16.0375 84.7076 16.0375 85.0172Z" fill="#BED2FF" stroke="#BED2FF"/>
<path d="M23.2731 85.0172C23.2731 85.3268 23.0271 85.5666 22.7373 85.5666C22.4474 85.5666 22.2014 85.3268 22.2014 85.0172C22.2014 84.7076 22.4474 84.4678 22.7373 84.4678C23.0271 84.4678 23.2731 84.7076 23.2731 85.0172Z" fill="#BED2FF" stroke="#BED2FF"/>
<path d="M30.5031 85.0172C30.5031 85.3268 30.257 85.5666 29.9672 85.5666C29.6774 85.5666 29.4314 85.3268 29.4314 85.0172C29.4314 84.7076 29.6774 84.4678 29.9672 84.4678C30.257 84.4678 30.5031 84.7076 30.5031 85.0172Z" fill="#BED2FF" stroke="#BED2FF"/>
<path d="M37.7387 85.0172C37.7387 85.3268 37.4926 85.5666 37.2028 85.5666C36.913 85.5666 36.667 85.3268 36.667 85.0172C36.667 84.7076 36.913 84.4678 37.2028 84.4678C37.4926 84.4678 37.7387 84.7076 37.7387 85.0172Z" fill="#BED2FF" stroke="#BED2FF"/>
<path d="M113.191 201.053C113.191 201.362 112.945 201.602 112.655 201.602C112.365 201.602 112.119 201.362 112.119 201.053C112.119 200.743 112.365 200.503 112.655 200.503C112.945 200.503 113.191 200.743 113.191 201.053Z" fill="#BED2FF" stroke="#BED2FF"/>
<path d="M120.426 201.053C120.426 201.362 120.18 201.602 119.891 201.602C119.601 201.602 119.355 201.362 119.355 201.053C119.355 200.743 119.601 200.503 119.891 200.503C120.18 200.503 120.426 200.743 120.426 201.053Z" fill="#BED2FF" stroke="#BED2FF"/>
<path d="M127.656 201.053C127.656 201.362 127.41 201.602 127.121 201.602C126.831 201.602 126.585 201.362 126.585 201.053C126.585 200.743 126.831 200.503 127.121 200.503C127.41 200.503 127.656 200.743 127.656 201.053Z" fill="#BED2FF" stroke="#BED2FF"/>
<path d="M134.892 201.053C134.892 201.362 134.646 201.602 134.356 201.602C134.066 201.602 133.82 201.362 133.82 201.053C133.82 200.743 134.066 200.503 134.356 200.503C134.646 200.503 134.892 200.743 134.892 201.053Z" fill="#BED2FF" stroke="#BED2FF"/>
<path d="M142.122 201.053C142.122 201.362 141.876 201.602 141.586 201.602C141.297 201.602 141.051 201.362 141.051 201.053C141.051 200.743 141.297 200.503 141.586 200.503C141.876 200.503 142.122 200.743 142.122 201.053Z" fill="#BED2FF" stroke="#BED2FF"/>
<path d="M113.191 208.383C113.191 208.693 112.945 208.933 112.655 208.933C112.365 208.933 112.119 208.693 112.119 208.383C112.119 208.074 112.365 207.834 112.655 207.834C112.945 207.834 113.191 208.074 113.191 208.383Z" fill="#BED2FF" stroke="#BED2FF"/>
<path d="M120.426 208.383C120.426 208.693 120.18 208.933 119.891 208.933C119.601 208.933 119.355 208.693 119.355 208.383C119.355 208.074 119.601 207.834 119.891 207.834C120.18 207.834 120.426 208.074 120.426 208.383Z" fill="#BED2FF" stroke="#BED2FF"/>
<path d="M127.656 208.383C127.656 208.693 127.41 208.933 127.121 208.933C126.831 208.933 126.585 208.693 126.585 208.383C126.585 208.074 126.831 207.834 127.121 207.834C127.41 207.834 127.656 208.074 127.656 208.383Z" fill="#BED2FF" stroke="#BED2FF"/>
<path d="M134.892 208.383C134.892 208.693 134.646 208.933 134.356 208.933C134.066 208.933 133.82 208.693 133.82 208.383C133.82 208.074 134.066 207.834 134.356 207.834C134.646 207.834 134.892 208.074 134.892 208.383Z" fill="#BED2FF" stroke="#BED2FF"/>
<path d="M142.122 208.383C142.122 208.693 141.876 208.933 141.586 208.933C141.297 208.933 141.051 208.693 141.051 208.383C141.051 208.074 141.297 207.834 141.586 207.834C141.876 207.834 142.122 208.074 142.122 208.383Z" fill="#BED2FF" stroke="#BED2FF"/>
<path d="M296.491 17.7516C296.491 18.0612 296.245 18.301 295.955 18.301C295.665 18.301 295.419 18.0612 295.419 17.7516C295.419 17.442 295.665 17.2021 295.955 17.2021C296.245 17.2021 296.491 17.442 296.491 17.7516Z" fill="#BED2FF" stroke="#BED2FF"/>
<path d="M303.721 17.7511C303.721 18.0607 303.475 18.3005 303.185 18.3005C302.896 18.3005 302.65 18.0607 302.65 17.7511C302.65 17.4415 302.896 17.2017 303.185 17.2017C303.475 17.2017 303.721 17.4415 303.721 17.7511Z" fill="#BED2FF" stroke="#BED2FF"/>
<path d="M310.957 17.7511C310.957 18.0607 310.711 18.3005 310.421 18.3005C310.131 18.3005 309.885 18.0607 309.885 17.7511C309.885 17.4415 310.131 17.2017 310.421 17.2017C310.711 17.2017 310.957 17.4415 310.957 17.7511Z" fill="#BED2FF" stroke="#BED2FF"/>
<path d="M296.491 25.0816C296.491 25.3913 296.245 25.6311 295.955 25.6311C295.665 25.6311 295.419 25.3912 295.419 25.0816C295.419 24.7721 295.665 24.5322 295.955 24.5322C296.245 24.5322 296.491 24.772 296.491 25.0816Z" fill="#BED2FF" stroke="#BED2FF"/>
<path d="M303.721 25.0816C303.721 25.3912 303.475 25.6311 303.185 25.6311C302.896 25.6311 302.65 25.3912 302.65 25.0816C302.65 24.772 302.896 24.5322 303.185 24.5322C303.475 24.5322 303.721 24.772 303.721 25.0816Z" fill="#BED2FF" stroke="#BED2FF"/>
<path d="M310.957 25.0816C310.957 25.3913 310.711 25.6311 310.421 25.6311C310.131 25.6311 309.885 25.3912 309.885 25.0816C309.885 24.772 310.131 24.5322 310.421 24.5322C310.711 24.5322 310.957 24.772 310.957 25.0816Z" fill="#BED2FF" stroke="#BED2FF"/>
<path d="M107.122 3.8834C107.122 4.19301 106.876 4.43282 106.586 4.43282C106.297 4.43282 106.051 4.19299 106.051 3.8834C106.051 3.57382 106.297 3.33398 106.586 3.33398C106.876 3.33398 107.122 3.57379 107.122 3.8834Z" fill="#BED2FF" stroke="#BED2FF"/>
<path d="M114.352 3.88292C114.352 4.19251 114.106 4.43233 113.817 4.43233C113.527 4.43233 113.281 4.19251 113.281 3.88292C113.281 3.57332 113.527 3.3335 113.817 3.3335C114.106 3.3335 114.352 3.57332 114.352 3.88292Z" fill="#BED2FF" stroke="#BED2FF"/>
<path d="M121.588 3.88292C121.588 4.19253 121.342 4.43233 121.052 4.43233C120.762 4.43233 120.516 4.19251 120.516 3.88292C120.516 3.57332 120.762 3.3335 121.052 3.3335C121.342 3.3335 121.588 3.5733 121.588 3.88292Z" fill="#BED2FF" stroke="#BED2FF"/>
<path d="M107.122 11.213C107.122 11.5226 106.876 11.7624 106.586 11.7624C106.297 11.7624 106.051 11.5226 106.051 11.213C106.051 10.9034 106.297 10.6636 106.586 10.6636C106.876 10.6636 107.122 10.9034 107.122 11.213Z" fill="#BED2FF" stroke="#BED2FF"/>
<path d="M114.352 11.213C114.352 11.5226 114.106 11.7624 113.817 11.7624C113.527 11.7624 113.281 11.5226 113.281 11.213C113.281 10.9034 113.527 10.6636 113.817 10.6636C114.106 10.6636 114.352 10.9034 114.352 11.213Z" fill="#BED2FF" stroke="#BED2FF"/>
<path d="M121.588 11.213C121.588 11.5226 121.342 11.7624 121.052 11.7624C120.762 11.7624 120.516 11.5226 120.516 11.213C120.516 10.9034 120.762 10.6636 121.052 10.6636C121.342 10.6636 121.588 10.9034 121.588 11.213Z" fill="#BED2FF" stroke="#BED2FF"/>
<path d="M361.5 116.804C361.5 117.114 361.254 117.354 360.964 117.354C360.674 117.354 360.428 117.114 360.428 116.804C360.428 116.495 360.674 116.255 360.964 116.255C361.254 116.255 361.5 116.495 361.5 116.804Z" fill="#BED2FF" stroke="#BED2FF"/>
<path d="M361.5 124.135C361.5 124.444 361.254 124.684 360.964 124.684C360.674 124.684 360.428 124.444 360.428 124.135C360.428 123.825 360.674 123.585 360.964 123.585C361.254 123.585 361.5 123.825 361.5 124.135Z" fill="#BED2FF" stroke="#BED2FF"/>
<path d="M361.5 131.46C361.5 131.769 361.254 132.009 360.964 132.009C360.674 132.009 360.428 131.769 360.428 131.46C360.428 131.15 360.674 130.91 360.964 130.91C361.254 130.91 361.5 131.15 361.5 131.46Z" fill="#BED2FF" stroke="#BED2FF"/>
<path d="M361.5 138.79C361.5 139.1 361.254 139.34 360.964 139.34C360.674 139.34 360.428 139.1 360.428 138.79C360.428 138.481 360.674 138.241 360.964 138.241C361.254 138.241 361.5 138.481 361.5 138.79Z" fill="#BED2FF" stroke="#BED2FF"/>
<path d="M361.5 146.115C361.5 146.425 361.254 146.665 360.964 146.665C360.674 146.665 360.428 146.425 360.428 146.115C360.428 145.806 360.674 145.566 360.964 145.566C361.254 145.566 361.5 145.806 361.5 146.115Z" fill="#BED2FF" stroke="#BED2FF"/>
<path d="M361.5 153.445C361.5 153.755 361.254 153.995 360.964 153.995C360.674 153.995 360.428 153.755 360.428 153.445C360.428 153.136 360.674 152.896 360.964 152.896C361.254 152.896 361.5 153.136 361.5 153.445Z" fill="#BED2FF" stroke="#BED2FF"/>
<path d="M361.5 160.77C361.5 161.08 361.254 161.32 360.964 161.32C360.674 161.32 360.428 161.08 360.428 160.77C360.428 160.461 360.674 160.221 360.964 160.221C361.254 160.221 361.5 160.461 361.5 160.77Z" fill="#BED2FF" stroke="#BED2FF"/>
<path d="M354.265 116.804C354.265 117.114 354.019 117.354 353.729 117.354C353.439 117.354 353.193 117.114 353.193 116.804C353.193 116.495 353.439 116.255 353.729 116.255C354.019 116.255 354.265 116.495 354.265 116.804Z" fill="#BED2FF" stroke="#BED2FF"/>
<path d="M354.265 124.135C354.265 124.444 354.019 124.684 353.729 124.684C353.439 124.684 353.193 124.444 353.193 124.135C353.193 123.825 353.439 123.585 353.729 123.585C354.019 123.585 354.265 123.825 354.265 124.135Z" fill="#BED2FF" stroke="#BED2FF"/>
<path d="M354.265 131.46C354.265 131.769 354.019 132.009 353.729 132.009C353.439 132.009 353.193 131.769 353.193 131.46C353.193 131.15 353.439 130.91 353.729 130.91C354.019 130.91 354.265 131.15 354.265 131.46Z" fill="#BED2FF" stroke="#BED2FF"/>
<path d="M354.265 138.79C354.265 139.1 354.019 139.34 353.729 139.34C353.439 139.34 353.193 139.1 353.193 138.79C353.193 138.481 353.439 138.241 353.729 138.241C354.019 138.241 354.265 138.481 354.265 138.79Z" fill="#BED2FF" stroke="#BED2FF"/>
<path d="M354.265 146.115C354.265 146.425 354.019 146.665 353.729 146.665C353.439 146.665 353.193 146.425 353.193 146.115C353.193 145.805 353.439 145.566 353.729 145.566C354.019 145.566 354.265 145.805 354.265 146.115Z" fill="#BED2FF" stroke="#BED2FF"/>
<path d="M354.265 153.445C354.265 153.755 354.019 153.995 353.729 153.995C353.439 153.995 353.193 153.755 353.193 153.445C353.193 153.136 353.439 152.896 353.729 152.896C354.019 152.896 354.265 153.136 354.265 153.445Z" fill="#BED2FF" stroke="#BED2FF"/>
<path d="M354.265 160.77C354.265 161.08 354.019 161.32 353.729 161.32C353.439 161.32 353.193 161.08 353.193 160.77C353.193 160.461 353.439 160.221 353.729 160.221C354.019 160.221 354.265 160.461 354.265 160.77Z" fill="#BED2FF" stroke="#BED2FF"/>
<path d="M347.035 116.804C347.035 117.114 346.789 117.354 346.499 117.354C346.209 117.354 345.963 117.114 345.963 116.804C345.963 116.495 346.209 116.255 346.499 116.255C346.789 116.255 347.035 116.495 347.035 116.804Z" fill="#BED2FF" stroke="#BED2FF"/>
<path d="M347.035 124.135C347.035 124.444 346.789 124.684 346.499 124.684C346.209 124.684 345.963 124.444 345.963 124.135C345.963 123.825 346.209 123.585 346.499 123.585C346.789 123.585 347.035 123.825 347.035 124.135Z" fill="#BED2FF" stroke="#BED2FF"/>
<path d="M347.035 131.46C347.035 131.769 346.789 132.009 346.499 132.009C346.209 132.009 345.963 131.769 345.963 131.46C345.963 131.15 346.209 130.91 346.499 130.91C346.789 130.91 347.035 131.15 347.035 131.46Z" fill="#BED2FF" stroke="#BED2FF"/>
<path d="M347.035 138.79C347.035 139.1 346.789 139.34 346.499 139.34C346.209 139.34 345.963 139.1 345.963 138.79C345.963 138.481 346.209 138.241 346.499 138.241C346.789 138.241 347.035 138.481 347.035 138.79Z" fill="#BED2FF" stroke="#BED2FF"/>
<path d="M347.035 146.115C347.035 146.425 346.789 146.665 346.499 146.665C346.209 146.665 345.963 146.425 345.963 146.115C345.963 145.805 346.209 145.566 346.499 145.566C346.789 145.566 347.035 145.805 347.035 146.115Z" fill="#BED2FF" stroke="#BED2FF"/>
<path d="M347.035 153.445C347.035 153.755 346.789 153.995 346.499 153.995C346.209 153.995 345.963 153.755 345.963 153.445C345.963 153.136 346.209 152.896 346.499 152.896C346.789 152.896 347.035 153.136 347.035 153.445Z" fill="#BED2FF" stroke="#BED2FF"/>
<path d="M347.035 160.77C347.035 161.08 346.789 161.32 346.499 161.32C346.209 161.32 345.963 161.08 345.963 160.77C345.963 160.461 346.209 160.221 346.499 160.221C346.789 160.221 347.035 160.461 347.035 160.77Z" fill="#BED2FF" stroke="#BED2FF"/>
<path d="M339.799 116.804C339.799 117.114 339.553 117.354 339.263 117.354C338.973 117.354 338.727 117.114 338.727 116.804C338.727 116.495 338.973 116.255 339.263 116.255C339.553 116.255 339.799 116.495 339.799 116.804Z" fill="#BED2FF" stroke="#BED2FF"/>
<path d="M339.799 124.135C339.799 124.444 339.553 124.684 339.263 124.684C338.973 124.684 338.727 124.444 338.727 124.135C338.727 123.825 338.973 123.585 339.263 123.585C339.553 123.585 339.799 123.825 339.799 124.135Z" fill="#BED2FF" stroke="#BED2FF"/>
<path d="M339.799 131.46C339.799 131.769 339.553 132.009 339.263 132.009C338.973 132.009 338.727 131.769 338.727 131.46C338.727 131.15 338.973 130.91 339.263 130.91C339.553 130.91 339.799 131.15 339.799 131.46Z" fill="#BED2FF" stroke="#BED2FF"/>
<path d="M339.799 138.79C339.799 139.1 339.553 139.34 339.263 139.34C338.973 139.34 338.727 139.1 338.727 138.79C338.727 138.481 338.973 138.241 339.263 138.241C339.553 138.241 339.799 138.481 339.799 138.79Z" fill="#BED2FF" stroke="#BED2FF"/>
<path d="M339.799 146.115C339.799 146.425 339.553 146.665 339.263 146.665C338.973 146.665 338.727 146.425 338.727 146.115C338.727 145.805 338.973 145.566 339.263 145.566C339.553 145.566 339.799 145.805 339.799 146.115Z" fill="#BED2FF" stroke="#BED2FF"/>
<path d="M339.799 153.445C339.799 153.755 339.553 153.995 339.263 153.995C338.973 153.995 338.727 153.755 338.727 153.445C338.727 153.136 338.973 152.896 339.263 152.896C339.553 152.896 339.799 153.136 339.799 153.445Z" fill="#BED2FF" stroke="#BED2FF"/>
<path d="M339.799 160.77C339.799 161.08 339.553 161.32 339.263 161.32C338.973 161.32 338.727 161.08 338.727 160.77C338.727 160.461 338.973 160.221 339.263 160.221C339.553 160.221 339.799 160.461 339.799 160.77Z" fill="#BED2FF" stroke="#BED2FF"/>
<path d="M277.422 160.292H89.6156C86.3416 160.292 83.668 157.577 83.668 154.208V37.0935C83.668 33.7243 86.3416 31.0093 89.6156 31.0093H277.428C280.702 31.0093 283.375 33.7243 283.375 37.0935V154.207C283.37 157.577 280.696 160.292 277.422 160.292Z" fill="#3D72CD" stroke="#3D72CD"/>
<path d="M277.151 155.245H89.8853C86.9811 155.245 84.6226 152.855 84.6226 149.913V37.1198C84.6226 34.1776 86.9811 31.7881 89.8853 31.7881H277.151C280.055 31.7881 282.413 34.1776 282.413 37.1198V149.913C282.413 152.861 280.055 155.245 277.151 155.245Z" fill="white"/>
<path d="M215.563 42.3397V121.92C215.563 124.32 213.645 126.263 211.276 126.263H93.0046C91.9411 126.263 90.9657 125.872 90.2162 125.219C89.3014 124.421 88.7173 123.243 88.7173 121.92V42.3397C88.7173 39.939 90.6405 37.9961 93.0046 37.9961H211.276C212.339 37.9961 213.32 38.3869 214.064 39.0401C214.985 39.8385 215.563 41.0165 215.563 42.3397Z" fill="#E6E6F0"/>
<path d="M274.068 72.0128H225.111C222.741 72.0128 220.824 70.0699 220.824 67.6692V42.3392C220.824 39.9385 222.741 37.9956 225.111 37.9956H274.068C276.438 37.9956 278.356 39.9385 278.356 42.3392V67.6692C278.356 70.0699 276.432 72.0128 274.068 72.0128Z" fill="#E6E6F0"/>
<path d="M274.068 112.057H225.111C222.741 112.057 220.824 110.114 220.824 107.714V82.3836C220.824 79.9829 222.741 78.04 225.111 78.04H274.068C276.438 78.04 278.356 79.9829 278.356 82.3836V107.714C278.356 110.114 276.432 112.057 274.068 112.057Z" fill="#E6E6F0"/>
<path d="M274.068 150H225.111C222.741 150 220.824 148.057 220.824 145.656V122.738C220.824 120.337 222.741 118.395 225.111 118.395H274.068C276.438 118.395 278.356 120.337 278.356 122.738V145.656C278.356 148.057 276.432 150 274.068 150Z" fill="#E6E6F0"/>
<path d="M153.397 134.805H90.2767C89.417 134.805 88.7227 134.101 88.7227 133.23C88.7227 132.359 89.417 131.656 90.2767 131.656H153.397C154.256 131.656 154.951 132.359 154.951 133.23C154.951 134.096 154.256 134.805 153.397 134.805Z" fill="#E6E6F0"/>
<path d="M157.04 149.577H90.3394C89.431 149.577 88.6973 148.894 88.6973 148.049V141.933C88.6973 141.088 89.431 140.405 90.3394 140.405H157.04C157.948 140.405 158.682 141.088 158.682 141.933V148.049C158.682 148.894 157.948 149.577 157.04 149.577Z" fill="#E6E6F0"/>
<path d="M200.128 134.805H214.009C214.869 134.805 215.563 134.101 215.563 133.23C215.563 132.359 214.869 131.656 214.009 131.656H200.128C199.268 131.656 198.573 132.359 198.573 133.23C198.573 134.096 199.268 134.805 200.128 134.805Z" fill="#E6E6F0"/>
<path d="M176.58 134.805H190.462C191.321 134.805 192.016 134.101 192.016 133.23C192.016 132.359 191.321 131.656 190.462 131.656H176.58C175.721 131.656 175.026 132.359 175.026 133.23C175.021 134.096 175.721 134.805 176.58 134.805Z" fill="#E6E6F0"/>
<path d="M186.477 149.644H214.009C214.869 149.644 215.563 148.941 215.563 148.07V141.767C215.563 140.896 214.869 140.192 214.009 140.192H186.477C185.618 140.192 184.923 140.896 184.923 141.767V148.07C184.923 148.941 185.618 149.644 186.477 149.644Z" fill="#E6E6F0"/>
<g opacity="0.24">
<path d="M249.413 64.0635C254.206 64.0635 258.092 60.1266 258.092 55.2703C258.092 50.4139 254.206 46.4771 249.413 46.4771C244.619 46.4771 240.733 50.4139 240.733 55.2703C240.733 60.1266 244.619 64.0635 249.413 64.0635Z" fill="#E6E6F0" stroke="#5D8AE1" stroke-width="2" stroke-miterlimit="10"/>
<path d="M252.969 54.4028L248.015 51.5053C247.469 51.187 246.792 51.5834 246.792 52.2199V58.015C246.792 58.6515 247.469 59.0479 248.015 58.7297L252.969 55.8321C253.515 55.5139 253.515 54.7211 252.969 54.4028Z" fill="#E6E6F0" stroke="#5D8AE1" stroke-width="2" stroke-miterlimit="10"/>
</g>
<g opacity="0.24">
<path d="M249.413 103.576C254.206 103.576 258.092 99.6388 258.092 94.7825C258.092 89.9261 254.206 85.9893 249.413 85.9893C244.619 85.9893 240.733 89.9261 240.733 94.7825C240.733 99.6388 244.619 103.576 249.413 103.576Z" fill="#E6E6F0" stroke="#5D8AE1" stroke-width="2" stroke-miterlimit="10"/>
<path d="M252.969 93.9151L248.015 91.0175C247.469 90.6993 246.792 91.0956 246.792 91.7321V97.5272C246.792 98.1637 247.469 98.5601 248.015 98.2419L252.969 95.3443C253.515 95.0261 253.515 94.2333 252.969 93.9151Z" fill="#E6E6F0" stroke="#5D8AE1" stroke-width="2" stroke-miterlimit="10"/>
</g>
<g opacity="0.24">
<path d="M249.413 142.707C254.206 142.707 258.092 138.77 258.092 133.913C258.092 129.057 254.206 125.12 249.413 125.12C244.619 125.12 240.733 129.057 240.733 133.913C240.733 138.77 244.619 142.707 249.413 142.707Z" fill="#E6E6F0" stroke="#5D8AE1" stroke-width="2" stroke-miterlimit="10"/>
<path d="M252.969 133.045L248.015 130.148C247.469 129.83 246.792 130.226 246.792 130.862V136.658C246.792 137.294 247.469 137.69 248.015 137.372L252.969 134.475C253.515 134.156 253.515 133.364 252.969 133.045Z" fill="#E6E6F0" stroke="#5D8AE1" stroke-width="2" stroke-miterlimit="10"/>
</g>
<path d="M214.064 39.0401L90.2162 125.219C89.3014 124.421 88.7173 123.243 88.7173 121.92V42.3397C88.7173 39.939 90.6405 37.9961 93.0046 37.9961H211.276C212.339 37.9961 213.32 38.3869 214.064 39.0401Z" fill="#F2F2FA"/>
<mask id="mask0_1239_94551" style="mask-type:alpha" maskUnits="userSpaceOnUse" x="89" y="20" width="127" height="107">
<path d="M215.718 25.3465V121.199C215.718 124.091 213.803 126.431 211.438 126.431H93.3776C92.3159 126.431 91.3423 125.96 90.5941 125.173C89.681 124.212 89.0979 122.793 89.0979 121.199V25.3465C89.0979 22.4549 91.0177 20.1147 93.3776 20.1147H211.438C212.5 20.1147 213.479 20.5855 214.221 21.3722C215.14 22.3339 215.718 23.7528 215.718 25.3465Z" fill="#A3D1DE"/>
</mask>
<g mask="url(#mask0_1239_94551)">
<path d="M205.743 87.8027C205.743 87.8027 212.813 82.1471 213.001 80.5281C213.353 77.4798 214.434 75.0903 220.903 73.0692C220.903 73.0692 221.405 74.0407 220.506 75.0958C219.525 76.2403 218.748 76.6423 218.748 76.6423C218.748 76.6423 220.462 77.3067 223.014 75.2857C225.565 73.2702 226.64 71.5171 227.714 71.947C227.714 71.947 228.982 70.7858 229.583 70.97C229.583 70.97 230.023 71.104 229.941 71.5841C230.938 71.4278 230.734 74.3421 228.96 76.7093C226.408 80.1149 223.223 83.046 220.617 84.0119C218.66 84.7377 210.576 93.0731 210.576 93.0731L205.743 87.8027Z" fill="#FFCAD0"/>
<path d="M183.91 116.655C180.824 117.71 163.702 91.0345 163.702 91.0345C157.083 83.3188 163.024 57.9051 169.014 66.8155C169.014 66.8155 184.593 95.3669 186.274 97.6671C188.362 100.526 195.311 112.752 183.91 116.655Z" fill="#3D72CD"/>
<path d="M164.617 143.136H119.473C119.473 143.136 116.006 141.589 119.021 134.845C120.15 132.327 119.66 125.84 119.473 116.935C119.092 99.3261 113.934 70.0992 120.299 66.7494C124.113 64.7339 132.213 62.082 138.093 60.2676C138.446 60.1671 138.788 60.061 139.124 59.9605C142.557 58.9221 145.009 58.2354 145.009 58.2354C145.009 58.2354 147.853 58.6541 153.628 60.3848C153.942 60.4797 154.267 60.5802 154.604 60.6807C156.108 61.1441 157.783 61.6856 159.646 62.3277C169.741 65.8059 168.606 64.5665 169.945 77.3403C171.014 87.5404 164.617 143.136 164.617 143.136Z" fill="#3D72CD"/>
<path d="M154.604 60.6751C154.471 62.8413 153.512 64.7563 152.052 66.1576C150.57 67.5924 148.558 68.4634 146.365 68.4634C141.841 68.4634 138.182 64.7954 138.088 60.2676C138.441 60.1671 138.782 60.061 139.118 59.9605C142.552 58.9221 145.004 58.2354 145.004 58.2354C145.004 58.2354 147.847 58.6541 153.623 60.3848C153.937 60.4741 154.267 60.5746 154.604 60.6751Z" fill="#F2F2FA"/>
<path d="M153.612 42.391L152.901 56.3038L152.697 60.2733C152.614 61.9593 151.881 63.4612 150.746 64.5443C149.622 65.6274 148.101 66.2862 146.437 66.2862C142.915 66.2862 140.077 63.3439 140.171 59.782L140.347 52.6972L140.645 40.9282L153.612 42.391Z" fill="#FBD5D9"/>
<path d="M153.611 45.1708L152.901 58.2741C146.817 58.5197 142.381 56.0186 140.347 52.6799L140.645 43.7192L153.611 45.1708Z" fill="#FFA4AD"/>
<path d="M136.606 28.7684C136.606 28.7684 130.775 28.0314 131.442 35.4345C131.96 41.1738 139.659 48.8336 139.659 48.8336C139.659 48.8336 144.519 31.5375 136.606 28.7684Z" fill="#8F4A3F"/>
<path d="M160.417 34.0994C160.021 35.015 159.409 35.8134 158.907 36.6732C158.411 37.5329 158.015 38.5155 158.125 39.5093C158.026 37.8958 156.973 36.5392 156.064 35.216C155.155 33.8872 154.328 32.2793 154.763 30.7273C155.177 29.2366 157.838 26.8862 159.459 27.852C161.261 28.924 161.123 32.4748 160.417 34.0994Z" fill="#0E1235"/>
<path d="M158.439 34.3954C158.439 34.3954 158.891 38.9288 158.263 43.9479C157.535 49.7486 157.794 56.5598 149.357 57.0176C140.353 57.5034 137.372 47.2921 137.372 47.2921C137.372 47.2921 132.588 46.3876 132.263 43.116C131.938 39.8388 135.278 39.6545 136.369 40.5757C136.369 40.5757 137.603 28.3657 148.74 28.3657C158.566 28.3546 158.439 34.3954 158.439 34.3954Z" fill="#FBD5D9"/>
<path d="M147.858 43.7134C147.858 44.2102 147.461 44.6177 146.966 44.6177C146.47 44.6177 146.073 44.2158 146.073 43.7134C146.073 43.2166 146.47 42.8091 146.966 42.8091C147.461 42.8091 147.858 43.2166 147.858 43.7134Z" fill="#9A5449"/>
<path d="M155.926 43.7134C155.926 44.2102 155.529 44.6177 155.033 44.6177C154.537 44.6177 154.141 44.2158 154.141 43.7134C154.141 43.2166 154.537 42.8091 155.033 42.8091C155.529 42.8091 155.926 43.2166 155.926 43.7134Z" fill="#9A5449"/>
<path d="M143.72 40.5708C143.72 40.5708 145.043 38.3655 147.859 39.1583" stroke="#561E15" stroke-width="1.0274" stroke-miterlimit="10" stroke-linecap="round" stroke-linejoin="round"/>
<path d="M152.713 39.1246C152.713 39.1246 154.747 37.2431 156.747 39.3032" stroke="#561E15" stroke-width="1.0274" stroke-miterlimit="10" stroke-linecap="round" stroke-linejoin="round"/>
<path d="M150.928 41.3633C150.928 41.3633 151.892 43.8589 152.713 45.4109C153.535 46.963 151.11 47.6553 151.11 47.6553" stroke="#D66D78" stroke-width="0.7706" stroke-miterlimit="10" stroke-linecap="round" stroke-linejoin="round"/>
<path d="M147.698 50.4468C147.698 50.4468 149.688 52.4008 152.245 51.2061" stroke="#D66D78" stroke-width="0.7706" stroke-miterlimit="10" stroke-linecap="round" stroke-linejoin="round"/>
<path d="M136.208 44.1657C136.208 44.1657 136.181 41.358 134.109 42.1227" stroke="#D66D78" stroke-width="0.7706" stroke-miterlimit="10" stroke-linecap="round" stroke-linejoin="round"/>
<path d="M138.942 31.1128C138.942 31.1128 144.006 36.3385 141.234 38.3372C138.148 40.5648 137.669 43.7136 137.669 43.7136C137.669 43.7136 137.735 42.6026 136.363 40.5704C134.991 38.5326 131.999 31.3082 138.942 31.1128Z" fill="#8F4A3F"/>
<path d="M183.91 116.656C187.591 119.084 215.569 88.8079 215.569 88.8079L210.604 82.2256C210.604 82.2256 189.332 95.7476 186.274 97.6681C181.865 100.432 171.527 108.494 183.91 116.656Z" fill="#3D72CD"/>
<path d="M169.031 99.0524C169.031 99.0524 170.282 85.2122 170.067 80.8184C170.067 80.8184 171.847 92.4365 171.891 103.173L169.031 99.0524Z" fill="#1D5AB9"/>
<path d="M121.754 94.3346C121.754 94.3346 128.306 65.9116 121.297 66.2466C121.297 66.2466 119.01 66.5257 114.535 73.5603C111.405 78.4789 107.977 87.0041 101.728 100.872C98.7744 107.427 95.0822 116.298 101.938 116.773C105.646 117.029 109.537 114.975 111.829 110.659C116.028 102.754 121.754 94.3346 121.754 94.3346Z" fill="#3D72CD"/>
<path d="M127.617 129.714L163.277 121.2C163.272 121.2 152.058 129.714 127.617 129.714Z" fill="#1D5AB9"/>
<path d="M118.04 100.046C118.04 100.046 123.793 89.7229 126.851 84.687L119.671 124.176C119.671 124.176 118.971 108.046 118.04 100.046Z" fill="#1D5AB9"/>
<path d="M140.97 113.495L119.643 123.583L120.74 113.21L140.97 113.495Z" fill="#1D5AB9"/>
<path d="M144.658 111.804L144.658 111.803L148.18 92.3243L148.18 92.3233C148.347 91.3866 149.15 90.7144 150.085 90.7144H157.568C158.77 90.7144 159.695 91.8207 159.473 93.0394L159.473 93.0397L155.952 112.518C155.952 112.518 155.952 112.518 155.952 112.518C155.78 113.458 154.974 114.129 154.047 114.129H146.563C145.361 114.129 144.437 113.022 144.658 111.804ZM144.166 111.714L144.166 111.714L144.166 111.714Z" fill="#3D72CD" stroke="#3D72CD"/>
<path d="M154.972 115.455H147.489C145.968 115.455 144.816 114.059 145.092 112.541L148.613 93.0616C148.822 91.8891 149.831 91.0405 151.01 91.0405H158.494C160.015 91.0405 161.166 92.4363 160.891 93.9548L157.37 113.434C157.16 114.606 156.152 115.455 154.972 115.455Z" fill="white"/>
<path d="M150.881 97.9434H149.612L150.462 93.2432H151.731L150.881 97.9434Z" fill="#3D72CD" stroke="#3D72CD"/>
<path d="M133.938 104.92C133.938 104.92 137.586 104.797 140.38 103.932C141.582 103.558 143.962 103.122 144.75 101.967C145.544 100.8 145.472 98.282 146.266 98.1759C146.877 98.0922 148.101 100.063 147.787 101.392C147.478 102.693 147.329 103.413 146.861 103.993C146.707 104.189 151.848 104.557 155.105 103.831C157.337 103.335 156.675 105.573 155.16 106.277C155.16 106.277 155.7 107.645 154.119 108.108C154.119 108.108 154.135 109.934 152.625 110.017C152.454 110.442 152.162 111.346 150.856 111.67C148.955 112.145 146.084 112.323 143.191 112.061C141.719 111.927 134.93 113.133 134.93 113.133L133.938 104.92Z" fill="#FFCAD0"/>
<path d="M101.717 116.878C106.925 117.799 137.967 114.249 137.967 114.249L137.195 103.245C137.195 103.245 111.901 104.439 108.528 104.132C97.3747 103.133 95.2365 115.734 101.717 116.878Z" fill="#3D72CD"/>
<path d="M140.171 22.817C140.705 22.2754 141.301 21.7004 142.05 21.6166C142.799 21.5329 143.654 22.2419 143.406 22.9677C145.957 21.8455 148.624 21.0081 151.352 20.4721C152.035 20.3381 152.774 20.2265 153.408 20.5335C154.036 20.8406 154.427 21.7283 153.997 22.281C155.32 22.7835 156.786 22.4541 158.191 22.2866C159.596 22.1191 161.2 22.1917 162.153 23.2469C163.04 24.2239 163.057 25.6978 163.029 27.0266C162.985 28.8466 162.941 30.6778 162.533 32.4532C161.927 35.0772 160.516 37.5002 158.538 39.3036C159.128 37.2602 158.075 34.9935 156.417 33.6815C154.763 32.3639 152.631 31.8447 150.542 31.6046C148.04 31.3143 145.494 31.3813 143.003 31.7944C141.124 32.1071 138.441 33.4637 136.572 32.604C132.434 30.7058 138.573 24.4361 140.171 22.817Z" fill="#8F4A3F"/>
</g>
<path d="M204.145 46.3426H178.234C176.25 46.3426 174.641 44.7124 174.641 42.7025V31.6928C174.641 29.683 176.25 28.0527 178.234 28.0527H204.145C206.129 28.0527 207.738 29.683 207.738 31.6928V42.7025C207.738 44.7124 206.129 46.3426 204.145 46.3426Z" fill="#3D72CD"/>
<path d="M180.184 45.1586V50.1721L185.486 44.8013L180.184 45.1586Z" fill="#3D72CD"/>
<path d="M182.251 39.2908C183.392 39.2908 184.317 38.3534 184.317 37.1971C184.317 36.0409 183.392 35.1035 182.251 35.1035C181.11 35.1035 180.184 36.0409 180.184 37.1971C180.184 38.3534 181.11 39.2908 182.251 39.2908Z" fill="#E6E6F0"/>
<path d="M191.189 39.2908C192.331 39.2908 193.256 38.3534 193.256 37.1971C193.256 36.0409 192.331 35.1035 191.189 35.1035C190.048 35.1035 189.123 36.0409 189.123 37.1971C189.123 38.3534 190.048 39.2908 191.189 39.2908Z" fill="#E6E6F0"/>
<path d="M200.128 39.2908C201.269 39.2908 202.194 38.3534 202.194 37.1971C202.194 36.0409 201.269 35.1035 200.128 35.1035C198.986 35.1035 198.061 36.0409 198.061 37.1971C198.061 38.3534 198.986 39.2908 200.128 39.2908Z" fill="#E6E6F0"/>
<path d="M275.42 195.361L274.247 209.827H280.336L283.499 195.361H275.42Z" fill="#FEC9CF"/>
<path d="M280.997 206.801C280.997 206.801 283.643 211.128 281.659 211.898C279.675 212.669 266.614 212.736 263.391 212.25C260.167 211.759 270.582 207.287 272.963 206.583C275.349 205.88 276.115 209.548 280.997 206.801Z" fill="#9DBAF0"/>
<path d="M307.438 195.362L308.606 209.827H302.517L299.359 195.362H307.438Z" fill="#FEC9CF"/>
<path d="M301.856 206.801C301.856 206.801 299.21 211.128 301.194 211.899C303.178 212.669 316.239 212.736 319.462 212.25C322.686 211.759 312.271 207.287 309.89 206.584C307.51 205.88 306.738 209.548 301.856 206.801Z" fill="#9DBAF0"/>
<path d="M274.197 116.268L271.436 202.999H284.293L287.065 145.232L298.081 204.657L312.083 202.296C312.083 202.296 299.442 137.472 297.293 116.273H274.197V116.268Z" fill="#D8D8E3"/>
<path d="M286.516 145.88L286.446 144.38L286.562 145.242L286.516 145.88Z" fill="#194248" stroke="#C9C9D4"/>
<path d="M293.159 116.268L308.038 202.782" stroke="#C9C9D4" stroke-miterlimit="10" stroke-linecap="round" stroke-linejoin="round"/>
<path d="M290.063 52.3369C292.807 52.3425 295.722 53.7997 296.648 56.4181C297.364 58.4335 296.824 60.8119 297.827 62.6989C298.566 64.0947 300.043 64.9935 300.709 66.4228C302.087 69.3929 299.403 72.9214 300.257 76.0814C301.046 79.0068 304.622 80.6817 304.92 83.7021C305.112 85.6283 303.773 87.4762 302.048 88.3137C300.329 89.1567 298.312 89.1511 296.428 88.8329C291.804 88.0457 287.451 85.4775 282.766 85.7232C280.838 85.8237 278.821 86.3931 277.035 85.6394C275.762 85.1035 274.842 83.9701 274.032 82.8424C273.101 81.5471 272.208 80.0732 272.296 78.4765C272.423 76.1316 274.522 74.4902 275.779 72.5194C277.063 70.504 277.603 67.986 277.245 65.6133C275.542 54.3356 281.802 54.6818 282.601 54.665C283.334 54.6483 285.77 53.1353 286.734 52.8505C287.825 52.5323 288.938 52.3369 290.063 52.3369Z" fill="#D38D00"/>
<path d="M260.652 99.6533C258.001 97.515 247.222 90.2906 247.117 89.2801C246.919 87.3819 246.263 85.88 242.246 84.5848C242.246 84.5848 241.926 85.1878 242.483 85.8521C243.084 86.5723 243.569 86.8236 243.569 86.8236C243.569 86.8236 242.499 87.2255 240.923 85.9526C239.347 84.6797 238.692 83.5798 238.019 83.8422C238.019 83.8422 237.237 83.1109 236.862 83.2225C236.862 83.2225 236.586 83.3007 236.636 83.6022C236.013 83.4961 236.124 85.3106 237.209 86.8012C238.774 88.9395 241.535 90.5698 243.155 91.1895C244.368 91.6529 252.32 103.567 257.648 104.857C259.18 105.214 261.886 100.647 260.652 99.6533Z" fill="#FCDDC6"/>
<path d="M268.99 89.0845C268.99 89.0845 257.075 97.5036 255.924 99.5972C254.772 101.691 255.632 107.279 260.938 103.69C266.245 100.1 274.622 93.5844 274.622 93.5844L268.99 89.0845Z" fill="#FCDDC6"/>
<path d="M275.112 81.4194C275.112 81.4194 271.839 82.2569 269.656 84.8865C267.827 87.0917 264.878 90.6425 264.878 90.6425L273.916 97.7553C273.922 97.7497 276.126 84.8195 275.112 81.4194Z" fill="#3D72CD"/>
<path d="M297.293 116.268H274.192C274.192 116.268 274.285 112.253 273.001 106.017C271.712 99.7866 272.357 96.5261 273.641 93.2712C274.93 90.0164 272.632 82.4905 275.112 81.4186C276.12 80.9831 277.873 80.2796 279.592 79.6041C280.027 79.4366 280.457 79.2635 280.871 79.1016C282.866 78.32 284.546 77.6724 284.546 77.6724H288.707C288.707 77.6724 291.572 78.6326 294.515 79.8218C294.901 79.9781 295.292 80.14 295.678 80.302C295.678 80.3075 295.678 80.3075 295.678 80.3075C297.16 80.9384 298.577 81.6028 299.541 82.2113C302.666 84.1654 297.293 116.268 297.293 116.268Z" fill="#5D8AE1"/>
<path d="M283.146 67.3161L283.587 75.9809L283.714 78.4541C283.769 79.5037 284.221 80.4417 284.926 81.1172C285.626 81.7928 286.574 82.2003 287.61 82.2003C289.803 82.2003 291.567 80.3691 291.512 78.1526L291.402 73.7421L291.214 66.4116L283.146 67.3161Z" fill="#FFDFC8"/>
<path d="M283.146 67.3161L283.587 75.4784C287.373 75.6347 290.14 74.0715 291.407 71.9946L291.22 66.4116L283.146 67.3161Z" fill="#DA9F74"/>
<path d="M280.138 60.6057C280.138 60.6057 279.857 63.4307 280.248 66.5516C280.7 70.1638 281.097 74.3008 285.797 74.6916C291.396 75.155 293.264 68.6341 293.264 68.6341C293.264 68.6341 295.865 68.0199 296.185 66.2222C296.505 64.4189 294.565 63.8773 293.887 64.4468C293.887 64.4468 293.115 56.8428 286.183 56.8428C280.055 56.8428 280.138 60.6057 280.138 60.6057Z" fill="#FFDFC8"/>
<path d="M295.678 80.302C295.678 80.3075 295.678 80.3075 295.678 80.302C290.939 86.1529 285.351 85.8794 285.351 85.8794C280.942 84.9023 279.592 79.6041 279.592 79.6041C280.028 79.4366 280.457 79.2635 280.871 79.1016C282.866 78.32 284.546 77.6724 284.546 77.6724H288.707C288.707 77.6724 291.573 78.6326 294.515 79.8218C294.901 79.9781 295.292 80.14 295.678 80.302Z" fill="#3D72CD"/>
<path d="M294.515 79.8218C289.682 85.1424 285.494 84.5841 285.494 84.5841C280.992 82.8366 280.871 79.1016 280.871 79.1016C282.865 78.32 284.546 77.6724 284.546 77.6724H288.707C288.707 77.6724 291.572 78.6326 294.515 79.8218Z" fill="#FCDDC6"/>
<path d="M282.551 55.2007C282.551 55.2007 283.196 60.6999 279.708 62.5144C279.708 62.5144 277.961 55.8539 282.551 55.2007Z" fill="#D38D00"/>
<path d="M281.493 55.7263C281.493 55.7263 282.733 60.5165 285.808 60.7957C288.883 61.0748 288.337 63.5983 291.06 63.8887C292.68 64.0617 293.402 65.7701 293.402 65.7701C293.402 65.7701 293.639 64.0729 295.105 63.4699C296.582 62.867 291.638 50.188 281.493 55.7263Z" fill="#D38D00"/>
<path d="M286.712 67.2549C286.712 67.5561 286.949 67.796 287.246 67.796C287.543 67.796 287.78 67.5561 287.78 67.2549C287.78 66.9537 287.543 66.7139 287.246 66.7139C286.954 66.7139 286.712 66.9593 286.712 67.2549Z" fill="#60423D"/>
<path d="M281.874 67.2544C281.874 67.5556 282.111 67.7955 282.408 67.7955C282.705 67.7955 282.942 67.5556 282.942 67.2544C282.942 66.9532 282.7 66.7134 282.408 66.7134C282.111 66.7134 281.874 66.9588 281.874 67.2544Z" fill="#60423D"/>
<path d="M289.197 65.3677C289.197 65.3677 288.403 64.0448 286.712 64.5192" stroke="#561E15" stroke-miterlimit="10" stroke-linecap="round" stroke-linejoin="round"/>
<path d="M283.802 64.5024C283.802 64.5024 282.579 63.3748 281.383 64.6084" stroke="#561E15" stroke-miterlimit="10" stroke-linecap="round" stroke-linejoin="round"/>
<path d="M284.871 65.8472C284.871 65.8472 284.292 67.3434 283.802 68.2758C283.311 69.2081 284.766 69.6213 284.766 69.6213" stroke="#DA9F74" stroke-width="0.75" stroke-miterlimit="10" stroke-linecap="round" stroke-linejoin="round"/>
<path d="M288.078 70.6826C288.078 70.6826 287.136 72.0725 285.494 71.6762" stroke="#DA9F74" stroke-width="0.75" stroke-miterlimit="10" stroke-linecap="round" stroke-linejoin="round"/>
<path d="M293.87 66.8738C293.87 66.8738 293.887 65.1893 295.126 65.6523" stroke="#DA9F74" stroke-width="0.75" stroke-miterlimit="10" stroke-linecap="round" stroke-linejoin="round"/>
<path d="M274.666 110.696H253.505C253.086 110.696 252.744 110.35 252.744 109.925C252.744 109.501 253.086 109.155 253.505 109.155H274.666C275.085 109.155 275.426 109.501 275.426 109.925C275.421 110.355 275.085 110.696 274.666 110.696Z" fill="#1D5AB9"/>
<path d="M251.317 92.4381L251.317 92.4381L251.317 92.4364C251.217 92.0359 251.522 91.6558 251.912 91.6558H270.973C271.253 91.6558 271.5 91.848 271.567 92.1272L271.568 92.1289L275.615 108.661H255.291L251.317 92.4381Z" fill="#3D72CD" stroke="#3D72CD"/>
<path d="M274.787 109.161H253.433L249.366 92.5571C249.19 91.848 249.724 91.1558 250.446 91.1558H269.508C270.02 91.1558 270.467 91.5075 270.588 92.01L274.787 109.161Z" fill="white"/>
<path d="M291.043 110.696H275.029C274.638 110.696 274.318 110.372 274.318 109.976V109.881C274.318 109.484 274.638 109.161 275.029 109.161H291.043C291.435 109.161 291.754 109.484 291.754 109.881V109.976C291.76 110.378 291.44 110.696 291.043 110.696Z" fill="#1D5AB9"/>
<path d="M262.389 99.2829L262.389 99.2837C262.727 100.17 262.383 100.891 261.951 101.063C261.733 101.148 261.461 101.122 261.177 100.949C260.893 100.775 260.623 100.464 260.463 100.044C260.304 99.6258 260.297 99.2096 260.394 98.8837C260.491 98.5575 260.68 98.3507 260.9 98.2652C261.323 98.1004 262.05 98.3891 262.389 99.2829Z" fill="#3D72CD" stroke="#3D72CD"/>
<path d="M298.461 109.16L297.072 90.9263L299.739 98.6029L298.461 109.16Z" fill="#3D72CD"/>
<path d="M298.643 92.7807C298.643 92.7807 301.938 110.724 302.754 113.661C303.283 115.559 307.129 116.855 308.336 114.342C308.601 113.789 308.54 112.868 308.513 111.93C308.325 106.13 304.319 91.3682 304.319 91.3682L298.643 92.7807Z" fill="#FCDDC6"/>
<path d="M299.547 82.2114C299.547 82.2114 301.514 83.2331 303.167 86.1195C304.82 89.0059 307.102 94.0976 306.958 95.3314C306.099 97.7042 299.31 100.161 299.31 100.161C299.31 100.161 294.774 85.0587 299.547 82.2114Z" fill="#5D8AE1"/>
<path d="M303.354 110.193C303.354 110.193 292.89 109.958 290.906 108.764C288.217 107.139 287.594 107.842 286.034 107.452C283.532 106.821 283.808 107.334 283.808 107.334C283.808 107.334 283.924 108.803 285.858 108.987C286.833 109.082 288.294 109.501 287.985 109.741C287.985 109.741 280.226 110.561 278.666 110.701C277.107 110.84 277.867 112.058 279.058 112.337C279.058 112.337 279.769 113.247 280.92 112.968C280.92 112.968 280.667 113.481 283.654 113.481C286.64 113.481 289.638 111.873 291.154 112.571C292.669 113.269 300.853 116.479 306.044 115.737C308.524 115.379 308.54 114.174 308.54 112.901C308.54 110.695 306.931 110.416 303.354 110.193Z" fill="#FCDDC6"/>
<path d="M86.2426 195.362L82.7874 209.827H76.698L78.1639 195.362H86.2426Z" fill="#A67A62"/>
<path d="M76.037 206.801C76.037 206.801 73.3919 211.128 75.3757 211.899C77.3596 212.669 90.42 212.736 93.6438 212.25C96.8676 211.759 86.4523 207.287 84.0717 206.584C81.691 205.88 80.9195 209.548 76.037 206.801Z" fill="#9DBAF0"/>
<path d="M67.0654 195.362L64.9768 209.827H58.8875L58.9866 195.362H67.0654Z" fill="#A67A62"/>
<path d="M58.2265 206.801C58.2265 206.801 55.5813 211.128 57.5652 211.899C59.5491 212.669 72.6095 212.736 75.8332 212.25C79.057 211.759 68.6418 207.287 66.2611 206.584C63.8805 205.88 63.109 209.548 58.2265 206.801Z" fill="#9DBAF0"/>
<path d="M56.8323 125.402L57.2842 202.593H66.95L73.7778 145.881L81.5589 168.894L75.7341 202.598H86.2485C86.2485 202.598 95.49 173.472 95.1153 167.755C94.7406 162.032 84.0718 123.052 84.0718 123.052L56.8323 125.402Z" fill="#D8D8E3"/>
<path d="M75.2063 148.564L74.2803 145.822L74.7119 141.385L75.2063 148.564Z" fill="#C9C9D4" stroke="#C9C9D4"/>
<path d="M62.2885 124.471L61.7314 202.599" stroke="#C9C9D4" stroke-miterlimit="10"/>
<path d="M91.8858 90.0503C91.8858 90.0503 98.1294 102.015 98.2672 105.688C98.405 109.362 94.4097 108.541 92.3432 105.23C90.2767 101.914 86.9702 92.5124 86.9702 92.5124L91.8858 90.0503Z" fill="#A67A62"/>
<path d="M93.0541 91.0502C93.0541 91.0502 91.2631 94.2771 86.9703 96.2479C86.0831 96.6555 85.3336 95.578 84.777 94.2995C84.1323 92.8088 83.7575 91.0502 83.7575 91.0502C83.7575 91.0502 78.8365 75.6244 83.1734 76.1771C83.1734 76.1771 86.8656 76.4395 89.5769 81.855C90.2877 83.2675 91.3954 86.1148 92.3212 88.817C92.5857 89.5874 92.8337 90.3411 93.0541 91.0502Z" fill="#3D72CD"/>
<path d="M93.0542 91.0496C93.0542 91.0496 91.2632 94.2766 86.9704 96.2474C86.0831 96.6549 85.3337 95.5774 84.7771 94.2989C86.4579 93.534 89.6376 91.8145 92.3213 88.8164C92.5858 89.5869 92.8338 90.3406 93.0542 91.0496Z" fill="#3D72CD"/>
<path d="M84.2921 123.894C81.5643 127.032 63.6049 126.568 56.8267 125.401C55.6364 125.195 54.4626 124.731 56.3417 120.533C57.0471 118.964 56.744 114.928 56.6228 109.378C56.3858 98.4076 53.1731 80.207 57.1353 78.119C59.5104 76.8628 64.5527 75.2103 68.2174 74.0825C68.4378 74.0211 68.6527 73.9541 68.8621 73.8871C71.0003 73.2395 72.5267 72.8096 72.5267 72.8096C72.5267 72.8096 74.2957 73.072 77.8942 74.1495C78.0871 74.2053 78.2965 74.2723 78.5059 74.3337C79.4427 74.624 80.4842 74.959 81.647 75.361C83.9009 76.137 85.5541 76.6116 85.9564 77.3709C87.031 79.364 86.6177 82.898 86.6838 87.9897C86.772 94.3822 86.7058 121.125 84.2921 123.894Z" fill="#5D8AE1"/>
<path d="M55.7795 96.9564L59.6536 87.3872L56.8321 112.003L55.7795 96.9564Z" fill="#3D72CD"/>
<path d="M78.5058 74.3395C78.4231 75.6906 77.8224 76.8798 76.9187 77.7507C75.9929 78.644 74.7419 79.1856 73.3808 79.1856C70.5648 79.1856 68.2834 76.9021 68.2283 74.0771C68.4487 74.0157 68.6636 73.9487 68.873 73.8817C71.0112 73.2341 72.5377 72.8042 72.5377 72.8042C72.5377 72.8042 74.3066 73.0666 77.9051 74.1441C78.0925 74.2167 78.2964 74.2781 78.5058 74.3395Z" fill="#3D72CD"/>
<path d="M80.8543 53.2771C80.8543 53.2771 78.8138 51.3015 75.7261 50.8314C71.2097 50.1439 65.2632 51.6326 64.0788 58.6178C63.1419 62.6431 67.9859 69.259 69.8154 68.8737C69.8154 68.8737 86.2841 58.3121 80.8543 53.2771Z" fill="#43302D"/>
<path d="M77.8887 62.9567L77.4479 71.6215L77.3211 74.0948C77.2715 75.1444 76.8141 76.0823 76.1088 76.7578C75.4089 77.4334 74.4611 77.8409 73.4251 77.8409C71.2318 77.8409 69.4684 76.0097 69.5235 73.7933L69.6337 69.3827L69.8211 62.0522L77.8887 62.9567Z" fill="#A67A62"/>
<path d="M77.8887 64.6818L77.4479 72.8441C73.662 73.0004 70.8956 71.4372 69.6282 69.3603L69.8155 63.7773L77.8887 64.6818Z" fill="#765441"/>
<path d="M80.8921 57.9705C80.8921 57.9705 81.1732 60.7954 80.7819 63.9163C80.33 67.5285 80.4898 71.7716 75.2326 72.0563C69.6227 72.3578 67.7656 65.9988 67.7656 65.9988C67.7656 65.9988 64.7843 65.4349 64.5804 63.3971C64.3765 61.3593 66.4595 61.2421 67.1374 61.8116C67.1374 61.8116 67.9089 54.2075 74.8414 54.2075C80.9748 54.2131 80.8921 57.9705 80.8921 57.9705Z" fill="#A67A62"/>
<path d="M74.4764 63.4291C74.4764 63.7414 74.2286 63.9924 73.9203 63.9924C73.612 63.9924 73.3643 63.7414 73.3643 63.4291C73.3643 63.1167 73.612 62.8657 73.9203 62.8657C74.2231 62.8657 74.4764 63.1167 74.4764 63.4291Z" fill="#60423D"/>
<path d="M79.8382 63.1395C79.8382 63.4519 79.5905 63.7029 79.2822 63.7029C78.9738 63.7029 78.7261 63.4519 78.7261 63.1395C78.7261 62.8272 78.9738 62.5762 79.2822 62.5762C79.5905 62.5762 79.8382 62.8272 79.8382 63.1395Z" fill="#60423D"/>
<path d="M71.7275 61.8177C71.7275 61.8177 72.5485 60.4445 74.3061 60.9413" stroke="#43302D" stroke-miterlimit="10" stroke-linecap="round" stroke-linejoin="round"/>
<path d="M77.3264 60.9181C77.3264 60.9181 78.5937 59.7459 79.8389 61.0298" stroke="#43302D" stroke-miterlimit="10" stroke-linecap="round" stroke-linejoin="round"/>
<path d="M76.2188 62.3135C76.2188 62.3135 76.8194 63.8655 77.3319 64.837C77.8444 65.8028 76.329 66.2327 76.329 66.2327" stroke="#765441" stroke-width="0.75" stroke-miterlimit="10" stroke-linecap="round" stroke-linejoin="round"/>
<path d="M74.2019 67.9697C74.2019 67.9697 75.4416 69.1866 77.0339 68.4442" stroke="#765441" stroke-width="0.75" stroke-miterlimit="10" stroke-linecap="round" stroke-linejoin="round"/>
<path d="M67.0487 64.0551C67.0487 64.0551 67.0322 62.3079 65.7429 62.7824" stroke="#765441" stroke-width="0.75" stroke-miterlimit="10" stroke-linecap="round" stroke-linejoin="round"/>
<path d="M68.7519 55.9272C68.7519 55.9272 71.904 59.1821 70.1792 60.4271C68.2615 61.8117 67.9584 63.7769 67.9584 63.7769C67.9584 63.7769 67.9969 63.0846 67.1428 61.8173C66.2886 60.55 64.426 56.0501 68.7519 55.9272Z" fill="#43302D"/>
<path d="M51.4923 90.6919C51.4923 90.6919 45.2487 102.656 45.1109 106.33C44.9731 110.003 48.9684 109.183 51.0349 105.872C53.1014 102.556 56.4079 93.154 56.4079 93.154L51.4923 90.6919Z" fill="#A67A62"/>
<path d="M96.0134 101.641C96.0134 101.641 86.7058 94.6627 86.1767 94.2663C85.2785 93.5852 83.9669 92.597 83.493 92.262C82.7435 91.7316 78.3625 90.9612 77.7508 91.0617C77.1446 91.1622 75.4639 91.4525 74.9734 91.6367C74.483 91.8209 75.1002 92.4574 75.5851 92.7589C76.0701 93.0604 78.2192 94.1881 80.0433 94.5287C81.0573 94.7185 81.928 95.2377 82.6388 95.7569C83.2064 96.1701 93.0266 106.314 93.3958 106.56L96.0134 101.641Z" fill="#A67A62"/>
<path d="M84.4905 93.0774C84.4905 93.0774 80.9857 89.7555 80.4622 89.8057C79.9442 89.856 80.3134 90.6041 81.6911 91.7374C82.1595 92.1227 82.661 92.7312 83.0798 92.9322C83.9009 93.323 84.4905 93.0774 84.4905 93.0774Z" fill="#A67A62"/>
<path d="M81.6421 104.851L81.6448 104.851C81.8688 104.825 82.0614 104.66 82.1216 104.425L82.1216 104.425L85.1745 92.5336L81.6421 104.851ZM81.6421 104.851L68.8632 106.398C68.8631 106.398 68.8629 106.398 68.8628 106.398C68.4774 106.444 68.1475 106.078 68.2499 105.679L71.3028 93.787L71.3028 93.7868M81.6421 104.851L71.3028 93.7868M71.3028 93.7868C71.363 93.5521 71.5556 93.3869 71.7796 93.361L71.7796 93.361M71.3028 93.7868L71.7796 93.361M71.7796 93.361L71.7823 93.3607M71.7796 93.361L71.7823 93.3607M71.7823 93.3607L84.5612 91.8142M71.7823 93.3607L84.5612 91.8142M84.5612 91.8142C84.5612 91.8142 84.5613 91.8142 84.5613 91.8142M84.5612 91.8142L84.5613 91.8142M84.5613 91.8142C84.9468 91.768 85.2768 92.1336 85.1746 92.5334L84.5613 91.8142Z" fill="#3D72CD" stroke="#3D72CD"/>
<path d="M82.2703 105.745L69.4909 107.292C68.747 107.381 68.1463 106.683 68.3337 105.952L71.3866 94.0601C71.4968 93.6302 71.855 93.312 72.2904 93.2617L85.0697 91.7153C85.8137 91.6259 86.4143 92.3238 86.227 93.0552L83.174 104.947C83.0638 105.371 82.7056 105.689 82.2703 105.745Z" fill="white"/>
<path d="M72.2726 96.2997L71.9982 96.332L72.5164 94.319L72.7907 94.2867L72.2726 96.2997Z" fill="#3D72CD" stroke="#3D72CD"/>
<path d="M47.4971 102.791C51.3987 102.947 63.5939 102.691 65.2085 102.132C65.9029 101.892 67.6112 101.529 68.0466 100.843C68.4874 100.145 68.8621 99.0839 69.3195 99.0058C69.6722 98.9444 69.5896 100.094 69.4849 100.513C69.2865 101.267 69.1542 101.658 68.8897 102.004C68.8015 102.121 71.8049 102.557 73.6895 102.071C74.9845 101.736 74.7421 102.785 73.8714 103.227C73.8714 103.227 74.2186 104.142 73.3038 104.444C73.3038 104.444 73.4636 105.46 72.5819 105.538C72.4882 105.789 72.2127 106.241 71.4522 106.459C70.35 106.772 68.4378 106.766 66.983 106.828C66.1233 106.861 49.5085 109.491 46.5713 108.743C45.3479 108.43 46.2296 102.741 47.4971 102.791Z" fill="#A67A62"/>
<path d="M58.6948 92.3C58.6948 92.3 58.4083 93.3998 57.984 94.5332C57.51 95.7838 56.8653 97.0678 56.2315 96.9506C56.2315 96.9506 47.6128 94.1926 47.8993 93.2993C48.1142 92.6349 48.4835 91.7696 48.9409 90.8093C50.3681 87.8057 52.633 83.8864 53.5478 82.3678C56.6669 77.1812 57.9454 77.84 57.9454 77.84C62.3154 77.6279 58.6948 92.3 58.6948 92.3Z" fill="#5D8AE1"/>
<path d="M57.9839 94.5334C57.51 95.784 56.8653 97.0681 56.2315 96.9509C56.2315 96.9509 47.6128 94.1929 47.8993 93.2996C48.1142 92.6352 48.4835 91.7698 48.9409 90.8096C50.5279 91.5689 54.8098 93.562 57.9839 94.5334Z" fill="#3D72CD"/>
<path d="M60.7173 118.981C60.7173 118.981 75.0452 116.653 82.7602 112.002C82.7602 112.002 74.1304 120.751 60.7173 118.981Z" fill="#3D72CD"/>
<path d="M239.408 174.302H202.15C200.315 174.302 198.833 172.795 198.833 170.941V152.702C198.833 150.843 200.32 149.341 202.15 149.341H239.408C241.243 149.341 242.725 150.848 242.725 152.702V170.936C242.731 172.795 241.243 174.302 239.408 174.302Z" fill="#5D8AE1"/>
<path d="M202.783 167.854C206.255 167.854 206.255 163.667 209.727 163.667C213.199 163.667 213.199 158.084 216.67 158.084C220.142 158.084 220.142 160.222 223.614 160.222C227.086 160.222 227.086 155.058 230.557 155.058C234.029 155.058 234.029 163.159 237.501 163.159" stroke="white" stroke-miterlimit="10" stroke-linecap="round" stroke-linejoin="round"/>
<path d="M203.797 167.854C203.797 167.29 203.346 166.832 202.789 166.832C202.233 166.832 201.781 167.29 201.781 167.854C201.781 168.418 202.233 168.875 202.789 168.875C203.346 168.875 203.797 168.418 203.797 167.854Z" fill="white"/>
<path d="M238.515 163.164C238.515 162.6 238.063 162.143 237.507 162.143C236.95 162.143 236.498 162.6 236.498 163.164C236.498 163.728 236.95 164.186 237.507 164.186C238.063 164.186 238.515 163.728 238.515 163.164Z" fill="white"/>
<path d="M23.9442 42.6061H61.1581C63.649 42.6061 65.6714 40.5571 65.6714 38.0336V26.5271C65.6714 24.0035 63.649 21.9546 61.1581 21.9546H23.9442C21.4533 21.9546 19.4309 24.0035 19.4309 26.5271V38.0336C19.4309 40.5627 21.4533 42.6061 23.9442 42.6061Z" fill="#5D8AE1"/>
<path d="M60.1276 41.4223V46.4358L54.8208 41.0649L60.1276 41.4223Z" fill="#5D8AE1"/>
<path d="M23.7073 27.0239H34.0234" stroke="white" stroke-miterlimit="10" stroke-linecap="round" stroke-linejoin="round"/>
<path d="M37.699 27.0239H61.3951" stroke="white" stroke-miterlimit="10" stroke-linecap="round" stroke-linejoin="round"/>
<path d="M23.7073 32.2847H42.9397" stroke="white" stroke-miterlimit="10" stroke-linecap="round" stroke-linejoin="round"/>
<path d="M45.8826 32.2837H51.5751" stroke="white" stroke-miterlimit="10" stroke-linecap="round" stroke-linejoin="round"/>
<path d="M54.6279 32.2837H61.3951" stroke="white" stroke-miterlimit="10" stroke-linecap="round" stroke-linejoin="round"/>
<path d="M23.7073 37.5366H28.0607" stroke="white" stroke-miterlimit="10" stroke-linecap="round" stroke-linejoin="round"/>
<path d="M30.728 37.5361H46.4336" stroke="white" stroke-miterlimit="10" stroke-linecap="round" stroke-linejoin="round"/>
<path d="M255.571 23.96H246.021C244.246 23.96 242.808 22.5028 242.808 20.7051V11.0298C242.808 9.23206 244.246 7.7749 246.021 7.7749H255.571C257.345 7.7749 258.784 9.23206 258.784 11.0298V20.7051C258.784 22.5028 257.345 23.96 255.571 23.96Z" fill="#5D8AE1"/>
<path d="M256.232 15.0326L255.995 13.9718C255.951 13.7652 255.742 13.6368 255.538 13.6815L254.92 13.8266C254.761 13.8657 254.601 13.7876 254.513 13.648C254.27 13.2628 253.973 12.9166 253.631 12.6263C253.493 12.5091 253.449 12.3192 253.526 12.1573L253.835 11.5153C253.929 11.3255 253.846 11.091 253.658 11.0016L252.689 10.5271C252.501 10.4322 252.27 10.5159 252.182 10.7057L251.851 11.4036C251.779 11.5599 251.608 11.6381 251.443 11.6158C251.239 11.5879 251.024 11.5711 250.815 11.5711C250.6 11.5711 250.391 11.5879 250.187 11.6158C250.016 11.6381 249.851 11.5599 249.779 11.4036L249.448 10.7057C249.355 10.5159 249.129 10.4322 248.941 10.5271L247.971 11.0016C247.784 11.0966 247.701 11.3255 247.795 11.5153L248.104 12.1573C248.181 12.3192 248.131 12.5091 247.999 12.6263C247.657 12.9222 247.354 13.2628 247.117 13.648C247.029 13.7876 246.869 13.8657 246.709 13.8266L246.092 13.6815C245.888 13.6368 245.684 13.7652 245.635 13.9718L245.398 15.0326C245.354 15.2391 245.481 15.4457 245.684 15.496L246.467 15.6746C246.461 15.7863 246.45 15.8923 246.45 16.004C246.45 16.5344 246.544 17.048 246.715 17.517C246.77 17.6733 246.731 17.852 246.599 17.958L246.296 18.2037C246.131 18.3377 246.103 18.5778 246.236 18.7453L246.875 19.5995C247.007 19.7669 247.244 19.7949 247.409 19.6609L247.619 19.4878C247.762 19.3761 247.96 19.3817 248.098 19.4934C248.539 19.8395 249.04 20.1075 249.592 20.2694C249.757 20.3197 249.878 20.4648 249.878 20.6435V20.8668C249.878 21.0789 250.049 21.252 250.258 21.252H251.333C251.542 21.252 251.713 21.0789 251.713 20.8668V20.6435C251.713 20.4648 251.834 20.3197 252 20.2694C252.551 20.1075 253.052 19.8451 253.493 19.4934C253.636 19.3817 253.835 19.3705 253.973 19.4878L254.182 19.6609C254.347 19.7949 254.584 19.7669 254.717 19.5995L255.389 18.7508C255.521 18.5833 255.494 18.3433 255.328 18.2093L255.025 17.9636C254.893 17.8576 254.854 17.6789 254.909 17.5226C255.08 17.048 255.174 16.54 255.174 16.0096C255.174 15.8979 255.163 15.7919 255.157 15.6802L255.94 15.5015C256.149 15.4457 256.276 15.2391 256.232 15.0326ZM250.798 18.762C249.294 18.762 248.076 17.5282 248.076 16.004C248.076 14.4798 249.294 13.246 250.798 13.246C252.303 13.246 253.521 14.4798 253.521 16.004C253.521 17.5282 252.303 18.762 250.798 18.762Z" fill="white"/>
<path d="M340.329 88.0365C341.308 81.9342 337.218 76.1851 331.194 75.1956C325.171 74.2061 319.494 78.3509 318.516 84.4532C317.538 90.5555 321.627 96.3046 327.651 97.2941C333.675 98.2836 339.351 94.1388 340.329 88.0365Z" fill="#5D8AE1"/>
<path d="M335.47 87.7139C336.259 84.3323 334.193 80.9441 330.854 80.1462C327.516 79.3483 324.17 81.4429 323.382 84.8246C322.593 88.2063 324.659 91.5945 327.998 92.3924C331.336 93.1903 334.682 91.0956 335.47 87.7139Z" fill="#5D8AE1" stroke="white" stroke-miterlimit="10" stroke-linecap="round" stroke-linejoin="round"/>
<path d="M329.415 82.1338V86.2484L327.271 88.4202" fill="#5D8AE1"/>
<path d="M329.415 82.1338V86.2484L327.271 88.4202" stroke="white" stroke-miterlimit="10" stroke-linecap="round" stroke-linejoin="round"/>
<path d="M329.415 79.9565V80.5589" stroke="white" stroke-miterlimit="10" stroke-linecap="round" stroke-linejoin="round"/>
<path d="M329.415 91.9438V92.5407" stroke="white" stroke-miterlimit="10" stroke-linecap="round" stroke-linejoin="round"/>
<path d="M335.625 86.2485H335.03" stroke="white" stroke-miterlimit="10" stroke-linecap="round" stroke-linejoin="round"/>
<path d="M323.799 86.2485H323.204" stroke="white" stroke-miterlimit="10" stroke-linecap="round" stroke-linejoin="round"/>
</svg>
